<svg width="136" height="51" viewBox="0 0 136 51" fill="none" xmlns="http://www.w3.org/2000/svg">
<g clip-path="url(#clip0_1_10678)">
<path d="M4.9119 24.3055C4.86286 24.2413 4.79811 24.1909 4.7239 24.1591C4.64967 24.1273 4.5685 24.1151 4.48823 24.1238C4.40795 24.1326 4.33128 24.1618 4.26563 24.2089C4.19998 24.2559 4.14757 24.319 4.11345 24.3922L0.0676438 32.4813C0.030787 32.555 0.0133852 32.637 0.0170905 32.7193C0.0207959 32.8017 0.0454854 32.8816 0.088815 32.9518C0.132145 33.0219 0.192676 33.0798 0.264662 33.1199C0.336649 33.16 0.4177 33.1812 0.500121 33.1812H6.13371C6.22394 33.1833 6.31284 33.1591 6.3896 33.1117C6.46637 33.0642 6.52772 32.9955 6.56618 32.9138C7.78142 30.4026 7.04495 26.5844 4.9119 24.3055Z" fill="white"/>
<path d="M7.88209 16.948C6.87399 18.4991 6.28651 20.2857 6.1773 22.1324C6.0681 23.9791 6.44091 25.8226 7.25917 27.4817L9.97519 32.9137C10.0153 32.9941 10.0771 33.0616 10.1534 33.1089C10.2299 33.156 10.3179 33.1811 10.4076 33.1811H16.0402C16.1226 33.1811 16.2037 33.1599 16.2757 33.1198C16.3477 33.0797 16.4082 33.0218 16.4516 32.9517C16.4948 32.8816 16.5196 32.8016 16.5232 32.7192C16.527 32.6369 16.5096 32.555 16.4727 32.4813C16.4727 32.4813 8.89503 17.3241 8.70459 16.945C8.66687 16.8678 8.60827 16.8028 8.53535 16.7574C8.46242 16.712 8.37823 16.6882 8.2924 16.6885C8.20649 16.6888 8.12245 16.7133 8.04992 16.7592C7.97731 16.8051 7.91918 16.8706 7.88209 16.948Z" fill="white"/>
<path d="M73.9487 23.4348C73.9487 25.4378 74.8779 27.0281 78.5123 27.7302C80.6812 28.1854 81.135 28.5355 81.135 29.2583C81.135 29.9604 80.6796 30.4149 79.1523 30.4149C77.3066 30.3816 75.4975 29.8922 73.8867 28.99V32.2525C74.9813 32.7894 76.4267 33.3883 79.1116 33.3883C82.9111 33.3883 84.4189 31.6939 84.4189 29.1756L73.9487 23.4348ZM84.4189 29.1756C84.4189 26.8007 83.1591 25.6855 79.6069 24.9216C77.6452 24.4879 77.1703 24.0544 77.1703 23.4348C77.1703 22.6508 77.8723 22.3197 79.1734 22.3197C80.743 22.3197 82.2914 22.7947 83.7577 23.4555V20.3371C82.3517 19.6972 80.8212 19.3798 79.2767 19.408C75.7658 19.408 73.9487 20.936 73.9487 23.4348" fill="white"/>
<path d="M122.765 19.6133V33.1809H125.656V22.8348L126.874 25.5812L130.964 33.1809H134.598V19.6133H131.707V28.3693L130.613 25.829L127.329 19.6133H122.765Z" fill="white"/>
<path d="M104.376 19.6133H101.217V33.1809H104.376V19.6133Z" fill="white"/>
<path d="M97.5707 29.1756C97.5707 26.8007 96.3109 25.6855 92.7595 24.9216C90.7979 24.4879 90.3229 24.0544 90.3229 23.4348C90.3229 22.6508 91.0248 22.3197 92.326 22.3197C93.8956 22.3197 95.444 22.7947 96.9103 23.4555V20.3371C95.5042 19.6972 93.973 19.3798 92.4285 19.408C88.9185 19.408 87.1009 20.936 87.1009 23.4348C87.1009 25.4378 88.0304 27.0281 91.6648 27.7302C93.833 28.1854 94.2876 28.5355 94.2876 29.2583C94.2876 29.9604 93.8322 30.4149 92.3049 30.4149C90.4591 30.3816 88.6501 29.8922 87.0391 28.99V32.2525C88.1337 32.7894 89.5789 33.3883 92.2634 33.3883C96.0637 33.3883 97.5707 31.6939 97.5707 29.1756Z" fill="white"/>
<path d="M49.4038 19.6133V33.1809H55.898L56.9206 30.2484H52.5839V19.6133H49.4038Z" fill="white"/>
<path d="M36.5723 19.6133V22.5455H40.0829V33.1809H43.263V22.5455H47.0215V19.6133H36.5723Z" fill="white"/>
<path d="M31.9585 19.6133H27.7907L23.0596 33.1809H26.6726L27.3433 30.8959C28.9952 31.3809 30.7517 31.3809 32.4036 30.8959L33.0743 33.1809H36.6881L31.9585 19.6133ZM29.8745 28.4492C29.286 28.4492 28.7004 28.3649 28.1357 28.1991L29.8745 22.2782L31.6132 28.2011C31.0485 28.3663 30.4629 28.4498 29.8745 28.4492Z" fill="white"/>
<path d="M67.0974 19.6133H62.93L58.1987 33.1809H61.8126L62.4833 30.8959C64.1352 31.3809 65.8916 31.3809 67.5435 30.8959L68.2142 33.1809H71.8281L67.0974 19.6133ZM65.0137 28.4492C64.4251 28.4492 63.8396 28.3649 63.2749 28.1991L65.0137 22.2782L66.7524 28.2011C66.1876 28.3663 65.6021 28.4498 65.0137 28.4492Z" fill="white"/>
<path d="M115.765 19.6133H111.598L106.866 33.1809H110.48L111.151 30.8959C112.803 31.3809 114.559 31.3809 116.212 30.8959L116.882 33.1809H120.496L115.765 19.6133ZM113.68 28.4492C113.091 28.4492 112.506 28.3649 111.941 28.1991L113.68 22.2782L115.419 28.2011C114.854 28.3663 114.269 28.4498 113.68 28.4492Z" fill="white"/>
</g>
<defs>
<clipPath id="clip0_1_10678">
<rect width="135.362" height="50.076" fill="white"/>
</clipPath>
</defs>
</svg>
