<svg width="133" height="30" viewBox="0 0 133 30" fill="none" xmlns="http://www.w3.org/2000/svg">
<path d="M42.0014 16.0312C41.8851 15.8567 41.7107 15.7404 41.4974 15.721C41.2841 15.7016 41.0709 15.7791 40.9159 15.9343C39.5395 17.0586 37.8336 17.6983 36.0502 17.6983C32.2119 17.6983 29.4205 14.7324 29.4205 10.6422C29.4205 6.55186 32.115 3.85734 35.9726 3.85734C37.601 3.85734 39.1905 4.36135 40.5088 5.29187C40.7996 5.56325 41.2647 5.52443 41.5362 5.23372C41.5555 5.2143 41.5749 5.17556 41.5943 5.15615L41.8076 4.84595C42.0789 4.51641 42.0208 4.03181 41.6718 3.76044C40.0241 2.51979 37.9887 1.88005 35.9339 1.93821C30.9519 1.93821 27.3269 5.62141 27.3269 10.6809C27.3269 15.8761 30.9713 19.6368 36.0114 19.6368C38.2601 19.6368 40.4312 18.842 42.1565 17.3881C42.4666 17.1167 42.5248 16.6515 42.2534 16.3413C42.234 16.322 42.234 16.322 42.2147 16.3026L42.0014 16.0312Z" fill="white"/>
<path d="M47.1767 17.5817C46.7502 17.5235 46.1105 17.4266 46.1105 16.0309V3.00413C46.1493 2.59702 45.8391 2.24815 45.432 2.20933C45.3933 2.20933 45.3545 2.20933 45.3157 2.20933H44.8699C44.4822 2.17058 44.1332 2.48071 44.0945 2.86848C44.0945 2.90722 44.0945 2.96538 44.0945 3.00413V16.3217C44.0945 19.0356 45.936 19.4427 47.0216 19.4427C47.4287 19.5008 47.7777 19.21 47.8358 18.8029C47.8358 18.7448 47.8358 18.706 47.8358 18.6479V18.2989C47.8746 17.9306 47.5838 17.6204 47.2348 17.5817C47.2155 17.5817 47.1961 17.5817 47.1767 17.5817Z" fill="white"/>
<path d="M50.44 6.97886H49.9941C49.587 6.94011 49.2381 7.25031 49.1993 7.65734C49.1993 7.69616 49.1993 7.73491 49.1993 7.77366V18.5518C49.1606 18.9589 49.4707 19.3078 49.8778 19.3466C49.9165 19.3466 49.9554 19.3466 49.9941 19.3466H50.44C50.8277 19.3853 51.1766 19.0752 51.2153 18.6874C51.2153 18.6487 51.2153 18.5905 51.2153 18.5518V7.77366C51.2542 7.38596 50.9827 7.01768 50.595 6.97886C50.5369 6.97886 50.4981 6.97886 50.44 6.97886Z" fill="white"/>
<path d="M50.5134 2.20984H49.9124C49.5247 2.1711 49.1758 2.48122 49.137 2.86891C49.137 2.90766 49.137 2.96582 49.137 3.00464V3.85759C49.0982 4.24529 49.3696 4.59416 49.738 4.63298C49.7961 4.63298 49.8543 4.63298 49.893 4.63298H50.4939C50.8816 4.67172 51.2112 4.40035 51.2693 4.01266C51.2693 3.9545 51.2693 3.91575 51.2693 3.85759V2.98523C51.3082 2.59753 51.0174 2.24859 50.6297 2.19043C50.6103 2.20984 50.5521 2.20984 50.5134 2.20984Z" fill="white"/>
<path d="M64.0218 16.7676C63.9249 16.5737 63.731 16.438 63.5372 16.3993C63.3239 16.3605 63.1107 16.4186 62.9362 16.5738C62.0251 17.3491 60.8814 17.795 59.6796 17.795C57.237 17.8531 55.221 15.9146 55.1628 13.4915C55.1628 13.3752 55.1628 13.2782 55.1628 13.1619C55.0465 10.7195 56.9075 8.64519 59.35 8.52888C59.4469 8.52888 59.5438 8.52888 59.6407 8.52888C60.7069 8.54829 61.7343 8.91665 62.5679 9.59513C62.7424 9.71137 62.9362 9.78894 63.1495 9.76952C63.3627 9.75019 63.5566 9.61446 63.6535 9.42066L63.8085 9.16861C63.9636 8.99414 64.0218 8.78092 64.0024 8.5677C63.9636 8.37382 63.8667 8.19934 63.7116 8.08303C62.5486 7.17199 61.114 6.68732 59.6214 6.70673C56.1514 6.59041 53.2631 9.30434 53.1274 12.7548C53.1274 12.8906 53.1274 13.0456 53.1274 13.1813C53.0111 16.6319 55.725 19.5396 59.1755 19.656C59.3306 19.656 59.4663 19.656 59.6214 19.656C61.2303 19.656 62.7811 19.1131 64.0218 18.0858C64.3707 17.8337 64.4289 17.3685 64.1962 17.0196L64.0218 16.7676Z" fill="white"/>
<path d="M71.1218 12.4253L74.6693 8.00546C74.8632 7.83099 74.9213 7.54028 74.8244 7.30765C74.6887 7.07501 74.4367 6.93929 74.1653 6.97811H73.5644C73.2154 6.97811 72.9053 7.13317 72.692 7.40455L69.4353 11.5529H67.7876V3.00413C67.8264 2.59702 67.5162 2.24815 67.1092 2.20933C67.0703 2.20933 67.0316 2.20933 66.9928 2.20933H66.547C66.1592 2.17058 65.8104 2.48071 65.7715 2.86848C65.7715 2.90722 65.7715 2.96538 65.7715 3.00413V18.551C65.7328 18.9387 66.0236 19.2876 66.4113 19.3458C66.45 19.3458 66.5082 19.3458 66.547 19.3458H66.9928C67.3999 19.3845 67.7488 19.0937 67.807 18.6867C67.807 18.6479 67.807 18.5897 67.807 18.551V13.3752H69.4547L73.1378 18.8611C73.293 19.1907 73.6419 19.3845 73.9908 19.3651H74.6111C74.8825 19.4039 75.1345 19.2876 75.2703 19.055C75.3865 18.8223 75.3478 18.551 75.1733 18.3377L71.1218 12.4253Z" fill="white"/>
<path d="M88.1008 3.31432V3.00412C88.1401 2.59702 87.8297 2.24815 87.4229 2.20933C87.3836 2.20933 87.3451 2.20933 87.3066 2.20933H74.8418C74.4347 2.17058 74.0857 2.4807 74.047 2.88781C74.047 2.92655 74.047 2.96538 74.047 3.00412V3.31432C74.0275 3.72135 74.3572 4.0703 74.7449 4.0703C74.7642 4.0703 74.803 4.0703 74.8223 4.0703H80.0373V18.551C79.998 18.9581 80.3084 19.307 80.7151 19.3458C80.7544 19.3458 80.793 19.3458 80.8315 19.3458H81.316C81.7042 19.3652 82.0532 19.0744 82.0724 18.6867C82.0724 18.6479 82.0724 18.6091 82.0724 18.5704V4.0703H87.3066C87.7133 4.08971 88.0623 3.76017 88.0623 3.35307C88.1008 3.35307 88.1008 3.33366 88.1008 3.31432Z" fill="white"/>
<path d="M92.6361 6.90137C91.0855 6.95945 89.6897 7.88997 89.0111 9.28568V7.75424C89.0504 7.36655 88.7592 6.99827 88.3525 6.95953C88.3132 6.95953 88.2747 6.95953 88.2362 6.95953H87.8094C87.4019 6.9207 87.053 7.2309 87.0145 7.63793C87.0145 7.67675 87.0145 7.7155 87.0145 7.75424V18.5324C86.976 18.9395 87.2856 19.2884 87.6931 19.3272C87.7316 19.3272 87.7709 19.3272 87.8094 19.3272H88.2554C88.6429 19.3659 88.9918 19.0558 89.0303 18.668C89.0303 18.6293 89.0303 18.5711 89.0303 18.5324V14.0738C89.0303 11.5538 90.2713 8.87858 92.5784 8.87858C93.0043 8.9174 93.3926 8.62661 93.4311 8.20009C93.4311 8.16135 93.4311 8.1226 93.4311 8.10319V7.67675C93.4696 7.28906 93.1599 6.94011 92.7717 6.90137C92.7524 6.90137 92.6947 6.90137 92.6361 6.90137Z" fill="white"/>
<path d="M98.9413 6.6875C97.5648 6.6875 96.2082 7.05578 95.0258 7.77309C94.6769 7.96689 94.5405 8.41274 94.7347 8.76169C94.7539 8.7811 94.7732 8.81985 94.7932 8.83926L94.948 9.09123C95.1614 9.45958 95.6267 9.5759 95.9756 9.3626C95.9949 9.3626 95.9949 9.34327 96.0141 9.34327C96.8669 8.81985 97.8367 8.54847 98.825 8.52906C100.686 8.52906 101.578 9.47892 101.578 11.4369V11.6307H101.073C96.0919 11.6307 93.5522 13.0845 93.5522 15.9535C93.5522 18.3767 95.6844 19.6561 97.7974 19.6561C99.0383 19.6561 100.221 19.1521 101.073 18.241C101.287 18.0277 101.462 17.7758 101.636 17.5237C101.636 17.5237 101.636 17.5819 101.636 17.6013V18.5511C101.597 18.9388 101.868 19.2878 102.275 19.3459C102.334 19.3459 102.372 19.3459 102.431 19.3459H102.818C103.206 19.3653 103.555 19.0746 103.575 18.6869C103.575 18.648 103.575 18.6093 103.575 18.5706V11.495C103.594 8.39341 101.946 6.6875 98.9413 6.6875ZM98.1078 17.8921C96.4016 17.8921 95.6267 16.8065 95.6267 15.7985C95.6267 13.5111 98.5538 13.2203 101.113 13.2203H101.597V13.5886C101.597 15.6628 100.259 17.8921 98.1078 17.8921Z" fill="white"/>
<path d="M114.658 6.97801H114.154C113.766 6.95867 113.417 7.21064 113.34 7.579L110.18 15.8952C110.083 16.1665 109.986 16.4573 109.909 16.7287C109.831 16.4573 109.754 16.1665 109.657 15.8952L106.497 7.59833C106.4 7.21064 106.051 6.95867 105.664 6.97801H105.14C104.907 6.95867 104.674 7.05558 104.539 7.24939C104.423 7.46268 104.423 7.69531 104.539 7.90853L108.707 18.7447C108.823 19.1131 109.172 19.3457 109.56 19.3263H110.355C110.723 19.3457 111.072 19.1131 111.169 18.7447L115.317 7.94728C115.414 7.73406 115.395 7.48202 115.278 7.28821C115.123 7.07499 114.89 6.95867 114.658 6.97801Z" fill="white"/>
<path d="M121.656 6.6875C118.051 6.6875 115.55 9.34327 115.55 13.1815C115.434 16.632 118.128 19.5204 121.579 19.6367C121.715 19.6367 121.87 19.6367 122.005 19.6367C123.498 19.6367 124.933 19.1521 126.134 18.2604C126.483 18.0277 126.58 17.5625 126.348 17.233C126.348 17.233 126.348 17.233 126.348 17.2136L126.154 16.9422C126.057 16.7677 125.902 16.6514 125.708 16.5933C125.495 16.5545 125.262 16.6127 125.087 16.7483C124.215 17.4268 123.149 17.7952 122.064 17.7952C119.951 17.7952 117.78 16.4382 117.625 13.3947H126.057C126.503 13.3947 126.852 13.0458 126.871 12.6194V12.5999C126.852 8.95558 124.856 6.6875 121.656 6.6875ZM121.599 8.41274C123.052 8.41274 124.642 9.30445 124.797 11.7857H117.702C117.974 9.84728 119.641 8.41274 121.599 8.41274Z" fill="white"/>
<path d="M131.813 17.5817C131.386 17.5235 130.747 17.4266 130.747 16.0309V3.00413C130.785 2.59702 130.475 2.24815 130.068 2.20933C130.029 2.20933 129.99 2.20933 129.952 2.20933H129.506C129.118 2.17058 128.769 2.48071 128.731 2.86848C128.731 2.90722 128.731 2.96538 128.731 3.00413V16.3217C128.731 19.0356 130.572 19.4427 131.658 19.4427C132.065 19.4814 132.414 19.21 132.471 18.8029C132.471 18.7448 132.471 18.706 132.471 18.6479V18.2989C132.511 17.9306 132.219 17.6204 131.87 17.5817C131.851 17.5817 131.832 17.5817 131.813 17.5817Z" fill="white"/>
<path d="M13.2557 19.4818H6.19956C3.91212 19.4818 2.07054 17.6208 2.07054 15.3527V8.31597C2.10931 7.73447 1.68284 7.24979 1.12067 7.19163C0.558505 7.13348 0.0544931 7.57933 -0.00366211 8.14149C-0.00366211 8.19965 -0.00366211 8.25781 -0.00366211 8.31597V15.3527C-0.00366211 18.7839 2.78779 21.556 6.19956 21.556H13.2364C13.8179 21.5172 14.2444 21.0132 14.1862 20.4316C14.1668 19.9276 13.7598 19.5205 13.2557 19.4818Z" fill="white"/>
<path d="M15.3511 0H8.3143C7.73272 0.0387462 7.30628 0.542753 7.36444 1.12433C7.40321 1.62834 7.81029 2.03544 8.3143 2.07419H15.3511C17.6385 2.07419 19.4801 3.93516 19.4801 6.22257V13.2593C19.5189 13.8409 20.0229 14.2674 20.6045 14.2092C21.1085 14.1705 21.5156 13.7634 21.5543 13.2593V6.22257C21.5543 2.79142 18.7822 0 15.3511 0Z" fill="white"/>
<path d="M5.19316 14.9067C4.82484 15.3332 4.86361 15.9922 5.29008 16.3799C5.67778 16.7289 6.25934 16.7095 6.64704 16.3799L7.92649 15.1199C8.29477 14.6741 8.23662 14.015 7.79077 13.6467C7.40306 13.3365 6.86027 13.3365 6.47257 13.6467L5.19316 14.9067Z" fill="white"/>
<path d="M9.41827 10.6811C9.04991 11.1076 9.08874 11.7667 9.51518 12.1544C9.90287 12.5033 10.4844 12.4839 10.8721 12.1544L12.1322 10.8943C12.5005 10.4485 12.4423 9.78943 11.9965 9.42107C11.6088 9.11095 11.066 9.11095 10.6783 9.42107L9.41827 10.6811Z" fill="white"/>
<path d="M15.6557 4.84668C15.3843 4.84668 15.1128 4.96299 14.919 5.1568L13.659 6.41686C13.2907 6.8433 13.3294 7.50245 13.7559 7.89014C14.1436 8.23901 14.7251 8.21967 15.1128 7.89014L16.3729 6.63008C16.78 6.22298 16.7606 5.56391 16.3535 5.1568C16.1984 4.96299 15.927 4.86601 15.6557 4.84668Z" fill="white"/>
<path d="M104.6 24.3474V23.8047H107.76V24.3474H106.501V28.0694H105.88V24.3474H104.6Z" fill="white"/>
<path d="M107.832 28.0505V25.0458H108.413V25.4722C108.588 25.1815 108.859 25.0264 109.208 25.0264C109.266 25.0264 109.344 25.0264 109.422 25.0458V25.6467C109.363 25.6467 109.305 25.6274 109.266 25.6274C109.228 25.6274 109.189 25.6274 109.17 25.6274C108.879 25.6274 108.665 25.7437 108.53 25.9569C108.51 25.9956 108.491 26.0344 108.491 26.0732C108.472 26.112 108.472 26.1507 108.452 26.1895C108.433 26.2283 108.433 26.267 108.433 26.3058C108.433 26.3446 108.433 26.3833 108.413 26.4027C108.413 26.4222 108.413 26.4609 108.413 26.4996C108.413 26.5384 108.413 26.5772 108.413 26.6354V28.0698H107.832V28.0505Z" fill="white"/>
<path d="M109.733 26.538C109.733 26.3247 109.772 26.1309 109.83 25.9564C109.889 25.7626 109.966 25.6075 110.082 25.4524C110.198 25.2973 110.335 25.181 110.509 25.1035C110.684 25.0065 110.877 24.9678 111.09 24.9678C111.536 24.9678 111.866 25.1228 112.099 25.4136V25.0647H112.68V28.0694H112.099V27.7204C111.962 27.8755 111.827 27.9918 111.653 28.05C111.497 28.1081 111.304 28.1469 111.09 28.1469C110.877 28.1469 110.684 28.1081 110.509 28.0112C110.335 27.9143 110.198 27.798 110.082 27.6429C109.966 27.4878 109.889 27.3133 109.83 27.1389C109.753 26.9451 109.733 26.7512 109.733 26.538ZM110.373 26.1697C110.354 26.2666 110.335 26.3635 110.315 26.4604C110.315 26.5574 110.315 26.6543 110.335 26.7512C110.354 26.8482 110.373 26.9451 110.393 27.0226C110.431 27.1195 110.47 27.197 110.509 27.2552C110.567 27.3522 110.664 27.4297 110.78 27.4878C110.896 27.546 111.013 27.5654 111.168 27.5654C111.459 27.5654 111.672 27.4685 111.846 27.2746C112.002 27.0807 112.079 26.8287 112.079 26.538C112.079 26.4022 112.059 26.2666 112.021 26.1309C111.982 25.9952 111.924 25.8982 111.846 25.8013C111.769 25.7044 111.672 25.6268 111.556 25.5687C111.439 25.5105 111.304 25.4912 111.168 25.4912C111.052 25.4912 110.955 25.5105 110.858 25.5494C110.761 25.5881 110.684 25.6268 110.625 25.685C110.567 25.7432 110.509 25.8207 110.451 25.8982C110.431 25.9952 110.393 26.0727 110.373 26.1697Z" fill="white"/>
<path d="M113.168 25.0449H113.788L114.524 27.1967L115.242 25.0449H115.843L114.757 28.0496H114.253L113.168 25.0449Z" fill="white"/>
<path d="M116.134 26.5185C116.134 26.3635 116.153 26.2278 116.172 26.0921C116.211 25.9564 116.25 25.8401 116.308 25.7238C116.366 25.6075 116.424 25.5105 116.502 25.433C116.58 25.3555 116.657 25.2779 116.754 25.2198C116.87 25.1228 117.006 25.0647 117.141 25.0259C117.277 24.9872 117.432 24.9678 117.568 24.9678C117.703 24.9678 117.839 24.9872 117.975 25.0259C118.111 25.0647 118.227 25.1228 118.363 25.2004C118.479 25.2779 118.595 25.3942 118.692 25.5299C118.79 25.6657 118.867 25.8401 118.906 26.0339C118.944 26.189 118.964 26.3829 118.964 26.6155V26.6737H116.734C116.734 26.9645 116.831 27.197 117.006 27.3715C117.141 27.5266 117.354 27.6041 117.626 27.6041C117.703 27.6041 117.781 27.5847 117.859 27.5654C117.936 27.546 117.995 27.5072 118.052 27.4878C118.111 27.4491 118.169 27.4103 118.208 27.3522C118.246 27.294 118.285 27.2358 118.324 27.1777H118.944C118.847 27.4103 118.731 27.6041 118.615 27.7399C118.479 27.8755 118.344 27.9725 118.188 28.0306C118.072 28.0694 117.975 28.1081 117.898 28.1276C117.8 28.147 117.703 28.1469 117.606 28.1469C117.161 28.1469 116.792 28.0112 116.521 27.7204C116.269 27.4103 116.134 27.0226 116.134 26.5185ZM118.344 26.2278C118.324 25.9952 118.246 25.8207 118.111 25.685C117.955 25.5494 117.781 25.4912 117.587 25.4912C117.374 25.4912 117.2 25.5687 117.064 25.7044C116.908 25.8401 116.831 26.0339 116.792 26.2472H118.344V26.2278Z" fill="white"/>
<path d="M120.938 28.0499V23.7852H122.644C122.779 23.7852 122.896 23.8046 123.012 23.824C123.128 23.8433 123.245 23.9015 123.342 23.9596C123.438 24.0178 123.535 24.0759 123.632 24.1729C123.729 24.2504 123.807 24.3473 123.865 24.4636C124 24.6769 124.059 24.9095 124.059 25.1809C124.059 25.4523 124 25.6849 123.865 25.8982C123.729 26.1114 123.554 26.2665 123.342 26.4022C123.128 26.5185 122.896 26.5767 122.624 26.5767H121.519V28.0693H120.938V28.0499ZM121.558 25.9951H122.644C122.896 25.9951 123.089 25.9176 123.245 25.7624C123.399 25.6074 123.477 25.4136 123.477 25.1615C123.477 24.9095 123.399 24.7157 123.245 24.5606C123.089 24.4055 122.876 24.328 122.644 24.328H121.558V25.9951Z" fill="white"/>
<path d="M124.255 26.5185C124.255 26.3635 124.274 26.2278 124.294 26.0921C124.333 25.9564 124.371 25.8401 124.43 25.7238C124.488 25.6075 124.546 25.5105 124.623 25.433C124.701 25.3555 124.779 25.2779 124.876 25.2198C124.992 25.1228 125.128 25.0647 125.263 25.0259C125.399 24.9872 125.554 24.9678 125.69 24.9678C125.826 24.9678 125.961 24.9872 126.097 25.0259C126.232 25.0647 126.349 25.1228 126.484 25.2004C126.601 25.2779 126.717 25.3942 126.814 25.5299C126.911 25.6657 126.989 25.8401 127.027 26.0339C127.066 26.189 127.085 26.3829 127.085 26.6155V26.6737H124.856C124.856 26.9645 124.953 27.197 125.128 27.3715C125.263 27.5266 125.477 27.6041 125.748 27.6041C125.826 27.6041 125.903 27.5847 125.981 27.5654C126.058 27.546 126.116 27.5072 126.175 27.4878C126.232 27.4491 126.291 27.4103 126.33 27.3522C126.368 27.294 126.407 27.2358 126.446 27.1777H127.066C126.969 27.4103 126.853 27.6041 126.736 27.7399C126.601 27.8755 126.465 27.9725 126.31 28.0306C126.194 28.0694 126.097 28.1081 126.019 28.1276C125.923 28.147 125.826 28.1469 125.729 28.1469C125.283 28.1469 124.915 28.0112 124.643 27.7204C124.391 27.4103 124.255 27.0226 124.255 26.5185ZM126.465 26.2278C126.446 25.9952 126.368 25.8207 126.232 25.685C126.078 25.5494 125.903 25.4912 125.709 25.4912C125.496 25.4912 125.321 25.5687 125.186 25.7044C125.031 25.8401 124.953 26.0339 124.915 26.2472H126.465V26.2278Z" fill="white"/>
<path d="M127.8 28.0505V25.0458H128.381V25.4722C128.555 25.1815 128.827 25.0264 129.176 25.0264C129.234 25.0264 129.312 25.0264 129.389 25.0458V25.6467C129.331 25.6467 129.272 25.6274 129.234 25.6274C129.195 25.6274 129.156 25.6274 129.137 25.6274C128.846 25.6274 128.633 25.7437 128.497 25.9569C128.478 25.9956 128.458 26.0344 128.458 26.0732C128.439 26.112 128.439 26.1507 128.42 26.1895C128.4 26.2283 128.4 26.267 128.4 26.3058C128.4 26.3446 128.4 26.3833 128.381 26.4027C128.381 26.4222 128.381 26.4609 128.381 26.4996C128.381 26.5384 128.381 26.5772 128.381 26.6354V28.0698H127.8V28.0505Z" fill="white"/>
<path d="M129.936 28.0499V23.7852H130.517V26.2471L131.7 25.0452H132.455L131.059 26.4216L132.494 28.0499H131.68L130.517 26.6736V28.0499H129.936Z" fill="white"/>
<path d="M119.678 27.4489C119.678 27.6428 119.737 27.7979 119.853 27.9142C119.95 28.0111 120.085 28.0693 120.26 28.0693V27.2357V25.6461V23.7852H119.678V27.4489Z" fill="white"/>
<path d="M74.8833 24.1152H75.9301C76.6861 24.1152 77.2677 24.4254 77.2677 25.2202V25.2396C77.2677 26.0537 76.6861 26.3639 75.9301 26.3639H75.1935V28.0504H74.8833V24.1152ZM75.9495 26.1119C76.5892 26.1119 76.9575 25.8405 76.9575 25.2396V25.2202C76.9575 24.5805 76.5504 24.3672 75.9301 24.3672H75.1741V26.1119H75.9495Z" fill="white"/>
<path d="M77.614 26.6351V26.5963C77.614 25.724 78.2341 25.123 79.0098 25.123C79.7847 25.123 80.4056 25.7045 80.4056 26.5769V26.6157C80.4056 27.488 79.7847 28.0889 79.0098 28.0889C78.2148 28.0889 77.614 27.488 77.614 26.6351ZM80.0952 26.6351V26.5963C80.0952 25.8403 79.6299 25.375 79.0098 25.375C78.3897 25.375 77.9244 25.8403 77.9244 26.5963V26.6351C77.9244 27.3717 78.3897 27.8369 79.0098 27.8369C79.6299 27.8369 80.0952 27.3717 80.0952 26.6351Z" fill="white"/>
<path d="M80.7361 25.1621H81.0457L81.8214 27.6821L82.6164 25.1621H82.8683L83.6239 27.6821L84.3996 25.1621H84.69L83.7795 28.0505H83.4499L82.7327 25.6467L81.9763 28.0505H81.6466L80.7361 25.1621Z" fill="white"/>
<path d="M85.0393 26.6351V26.5963C85.0393 25.724 85.5824 25.123 86.3581 25.123C87.056 25.123 87.6175 25.5689 87.6175 26.5188V26.6157H85.3305C85.3497 27.391 85.7179 27.8176 86.3966 27.8176C86.8811 27.8176 87.1915 27.6237 87.3078 27.2166H87.5982C87.4819 27.7594 87.0167 28.0695 86.3966 28.0695C85.5631 28.0889 85.0393 27.5074 85.0393 26.6351ZM87.3078 26.4024C87.2886 25.7045 86.9196 25.375 86.3581 25.375C85.7957 25.375 85.4083 25.7627 85.3497 26.4024H87.3078Z" fill="white"/>
<path d="M88.2944 25.1618H88.5856V25.7627C88.7404 25.4138 89.0308 25.1424 89.5546 25.123V25.3944C88.9923 25.4138 88.5856 25.6658 88.5856 26.4412V28.0308H88.2944V25.1618Z" fill="white"/>
<path d="M89.8826 26.6351V26.5963C89.8826 25.724 90.4256 25.123 91.2006 25.123C91.8984 25.123 92.4608 25.5689 92.4608 26.5188V26.6157H90.173C90.193 27.391 90.5612 27.8176 91.2391 27.8176C91.7244 27.8176 92.034 27.6237 92.1503 27.2166H92.4415C92.3252 27.7594 91.8599 28.0695 91.2391 28.0695C90.4256 28.0889 89.8826 27.5074 89.8826 26.6351ZM92.1696 26.4024C92.1503 25.7045 91.7821 25.375 91.2198 25.375C90.6575 25.375 90.27 25.7627 90.2123 26.4024H92.1696Z" fill="white"/>
<path d="M92.95 26.6543V26.6155C92.95 25.7238 93.5315 25.1422 94.2872 25.1422C94.8495 25.1422 95.1792 25.4718 95.334 25.8207V23.8047H95.6252V28.0694H95.334V27.4103C95.1792 27.7593 94.7725 28.1275 94.2294 28.1275C93.5123 28.0888 92.95 27.5654 92.95 26.6543ZM95.334 26.6349V26.5961C95.334 25.8013 94.9081 25.3943 94.3072 25.3943C93.6864 25.3943 93.2404 25.8401 93.2404 26.6155V26.6543C93.2404 27.4491 93.6864 27.8562 94.2679 27.8562C94.8495 27.8368 95.334 27.4103 95.334 26.6349Z" fill="white"/>
<path d="M98.1781 27.3908V28.0499H97.887V23.7852H98.1781V25.84C98.3522 25.4717 98.7597 25.1228 99.2827 25.1228C99.9999 25.1228 100.581 25.685 100.581 26.5767V26.6154C100.581 27.5265 100.039 28.0887 99.2827 28.0887C98.7012 28.0887 98.333 27.7397 98.1781 27.3908ZM100.252 26.6348V26.596C100.252 25.8013 99.7865 25.3747 99.225 25.3747C98.6627 25.3747 98.1581 25.8013 98.1581 26.596V26.6348C98.1581 27.4296 98.6434 27.8366 99.2442 27.8366C99.8451 27.8366 100.252 27.4102 100.252 26.6348Z" fill="white"/>
<path d="M102.019 27.7985L100.876 25.1621H101.186L102.175 27.4495L103.086 25.1621H103.376L101.786 29.0391H101.477L102.019 27.7985Z" fill="white"/>
</svg>
