<svg width="85" height="27" viewBox="0 0 85 27" fill="none" xmlns="http://www.w3.org/2000/svg">
<path fill-rule="evenodd" clip-rule="evenodd" d="M9.10059 9.87555C9.31765 9.65856 9.48041 9.49573 9.26335 9.49573C9.22391 9.49573 9.16221 9.49981 9.08272 9.50512C8.39726 9.55065 6.39105 9.6839 5.95343 8.03068C5.46507 6.18581 8.12389 0.705395 8.23242 0.488349C8.28665 0.271303 8.12389 0 7.7983 0C7.61082 0 7.44929 0.15544 7.34947 0.251515C7.30479 0.294481 7.27244 0.325568 7.25572 0.325568C6.57401 1.18446 5.82041 2.09477 5.06629 3.00568C2.81905 5.72018 0.567369 8.44 0.201716 9.82132C-1.04629 14.4335 3.78297 16.3327 6.8216 16.6582C6.87587 16.6582 6.87587 16.604 6.87587 16.604V14.9761C6.93013 12.7514 7.74407 11.0693 9.10059 9.87555ZM84.5245 9.82132C84.1386 8.36567 81.693 5.42363 79.319 2.56779L79.3182 2.56771C78.6835 1.80422 78.0542 1.04666 77.4704 0.325568C77.4619 0.317411 77.4511 0.304355 77.438 0.288049C77.3633 0.195879 77.2046 0 76.9273 0C76.6562 0 76.439 0.271303 76.5476 0.488349C76.6562 0.705395 79.3152 6.24004 78.8268 8.03068C78.3893 9.6839 76.3828 9.55065 75.6975 9.50512C75.618 9.49981 75.5563 9.49573 75.5169 9.49573C75.2998 9.49573 75.4626 9.65856 75.6797 9.87555C77.0359 11.0693 77.904 12.7514 77.904 14.9219V16.5497C77.904 16.5769 77.904 16.5904 77.911 16.5972C77.9179 16.604 77.9318 16.604 77.9587 16.604C81.0513 16.3327 85.7723 14.4335 84.5245 9.82132ZM72.5325 20.5108C72.5325 22.0844 70.4163 22.9525 69.0597 22.9525C67.5947 22.9525 65.5328 22.0844 65.5328 20.5108V14.9761C65.5328 13.4025 67.5947 12.6971 69.0597 12.6971C70.4163 12.6971 72.5325 13.4567 72.5325 14.9761V20.5108ZM69.0597 9.22444C65.8041 9.27866 62.0058 11.1235 62.0058 14.9219V20.7278C62.0058 24.5803 65.8041 26.4253 69.0597 26.4253C72.2612 26.371 76.0595 24.5803 76.0595 20.7278V14.9761C76.0595 11.1778 72.2612 9.27866 69.0597 9.22444ZM44.5331 22.9525C45.8897 22.9525 48.0059 22.0844 48.0059 20.5108V14.9761C48.0059 13.4567 45.8897 12.6971 44.5331 12.6971C43.0681 12.6971 41.0061 13.4025 41.0061 14.9761V20.5108C41.0061 22.0844 43.0681 22.9525 44.5331 22.9525ZM37.4249 14.9219C37.4249 11.1235 41.2232 9.27866 44.4789 9.22444C47.6803 9.27866 51.4786 11.1778 51.4786 14.9761V20.7278C51.4786 24.5803 47.6803 26.371 44.4789 26.4253C41.2232 26.4253 37.4249 24.5803 37.4249 20.7278V14.9219ZM29.8827 9.55011C32.7044 9.55011 34.6035 9.82139 37.208 10.5268C37.2623 10.5268 37.3166 10.6353 37.3166 10.7439C36.3941 11.4493 35.9601 12.4802 35.743 13.5654C34.3322 13.1856 33.1384 13.0229 31.6734 12.9143V26.3169C31.6734 26.3711 31.6191 26.3711 31.5648 26.3711H28.2006C28.1464 26.3711 28.0922 26.3711 28.0922 26.3169V12.9143C26.5728 13.0229 25.2705 13.2399 23.8598 13.5654C23.6969 12.4802 23.3171 11.5035 22.4489 10.7439C22.3946 10.6896 22.4489 10.5811 22.5575 10.5268C25.162 9.82139 27.1154 9.55011 29.8827 9.55011ZM62.1142 9.38681C61.843 9.33258 61.1375 9.22405 60.4864 9.27828C57.285 9.38681 53.6494 11.286 53.6494 14.9757V26.4249C53.6494 26.4791 53.7037 26.4791 53.7579 26.4791H57.1221C57.1764 26.4791 57.2307 26.4791 57.2307 26.4249V14.9757C57.2307 13.7277 58.75 13.0223 59.998 12.751C60.3779 11.5573 61.0832 10.6349 62.1685 9.76663C62.3313 9.60387 62.277 9.38681 62.1142 9.38681ZM18.7589 16.0608C18.8131 16.0065 18.8131 16.0065 18.8131 15.9523V14.9756C18.8131 13.402 17.0225 12.6423 15.6117 12.6423C14.1467 12.6423 12.2475 13.402 12.2475 14.9756V16.115H18.6504C18.7046 16.115 18.7589 16.115 18.7589 16.0608ZM8.66624 14.9213C8.66624 11.0688 12.3017 9.16959 15.6117 9.11537C18.8674 9.16959 22.2859 11.0688 22.2859 14.9756V18.1769C22.2859 18.6653 21.9061 19.0452 21.4177 19.0452H12.2475V20.7815C12.2475 22.3551 14.1467 23.2776 15.6117 23.2776C16.697 23.2776 18.2705 22.7349 18.8674 21.704C18.9217 21.6497 18.9217 21.6497 18.976 21.6497C19.9838 22.1776 20.6095 22.5357 21.5291 23.0619C21.6493 23.1307 21.7743 23.2023 21.9061 23.2776C21.9603 23.3318 22.0146 23.4403 21.9603 23.4946C20.6581 25.6108 17.9993 26.5875 15.6117 26.5875C12.3017 26.5332 8.66624 24.6883 8.66624 20.7815V14.9213Z" fill="white"/>
</svg>
