<svg width="162" height="32" viewBox="0 0 162 32" fill="none" xmlns="http://www.w3.org/2000/svg">
<path d="M23.1991 15.3276C26.5129 15.3276 29.0201 17.9002 29.0201 21.1051C29.0201 24.31 26.5129 26.8608 23.1991 26.8608C19.8851 26.8608 17.3779 24.31 17.3779 21.1051C17.3779 17.9002 19.8851 15.3276 23.1991 15.3276ZM23.1991 24.1138C24.9214 24.1138 26.0987 22.7621 26.0987 21.1051C26.0987 19.4482 24.9214 18.0747 23.1991 18.0747C21.4767 18.0747 20.2995 19.4482 20.2995 21.1051C20.2995 22.7621 21.4985 24.1138 23.1991 24.1138Z" fill="white"/>
<path d="M39.4181 24.9201C39.4181 25.7704 38.328 26.8604 36.3658 26.8604C34.7306 26.8604 33.2045 26.1192 32.2234 24.9855C31.3733 23.9825 30.8281 22.6091 30.8281 21.1047C30.8281 17.8344 33.2264 15.3272 36.2132 15.3272C38.1972 15.3272 39.2219 16.3083 39.3091 17.2023V10.4219H42.2523V26.6424H39.4181V24.9201ZM39.3091 19.426C38.6986 18.5975 37.7176 18.0525 36.6057 18.0525C34.8833 18.0525 33.7714 19.4914 33.7714 21.0829C33.7714 22.8271 35.0141 24.0916 36.6711 24.0916C37.783 24.0916 38.7422 23.5465 39.3091 22.718V19.426Z" fill="white"/>
<path d="M53.8715 26.621C53.479 26.7518 52.607 26.839 52.0401 26.839C50.2741 26.839 48.9879 26.2504 48.2465 25.2475C47.6798 24.4844 47.4399 23.5033 47.4399 21.9336V18.0529H44.3877V15.5457H47.4399V12.4717H50.3832V15.5457H54.0023V18.0529H50.3832V22.2825C50.3832 22.9583 50.4922 23.3725 50.7538 23.6778C51.0372 24.0266 51.5168 24.2228 52.2363 24.2228C52.6724 24.2228 53.2392 24.1574 53.4354 24.1138L53.8715 26.621Z" fill="white"/>
<path d="M116.558 24.8983C115.49 26.1847 113.745 26.8823 112.067 26.8823C108.797 26.8823 106.333 24.5931 106.333 21.1266C106.333 18.0525 108.404 15.3491 111.674 15.3491C114.705 15.3491 116.841 17.9217 116.841 21.0176C116.841 21.3228 116.819 21.6062 116.776 21.8679H109.189C109.342 23.4158 110.585 24.4841 112.154 24.4841C113.397 24.4841 114.399 23.7864 114.901 23.1978L116.558 24.8983ZM113.811 19.6877C113.723 18.7066 112.83 17.7474 111.631 17.7474C110.41 17.7474 109.407 18.6848 109.277 19.6877H113.811Z" fill="white"/>
<path d="M123.663 22.3474L126.672 15.5889H129.724L124.687 26.6642H122.659L117.624 15.5889H120.675L123.663 22.3474Z" fill="white"/>
<path d="M140.626 24.8983C139.558 26.1847 137.814 26.8823 136.136 26.8823C132.865 26.8823 130.401 24.5931 130.401 21.1266C130.401 18.0525 132.472 15.3491 135.743 15.3491C138.774 15.3491 140.91 17.9217 140.91 21.0176C140.91 21.3228 140.888 21.6062 140.845 21.8679H133.257C133.41 23.4158 134.652 24.4841 136.223 24.4841C137.466 24.4841 138.468 23.7864 138.97 23.1978L140.626 24.8983ZM137.901 19.6877C137.814 18.7066 136.92 17.7474 135.721 17.7474C134.5 17.7474 133.498 18.6848 133.366 19.6877H137.901Z" fill="white"/>
<path d="M150.393 15.4364L150.045 18.2053C149.849 18.1398 149.413 18.0962 148.976 18.0962C147.69 18.0962 146.666 19.0338 146.317 19.6878V26.6425H143.374V15.589H146.208V17.3113C146.208 16.3957 147.429 15.371 149.391 15.371C149.827 15.3493 150.067 15.3928 150.393 15.4364Z" fill="white"/>
<path d="M161.574 26.6643C161.182 26.7951 160.31 26.8823 159.743 26.8823C157.977 26.8823 156.691 26.2936 155.949 25.2908C155.382 24.5277 155.143 23.5466 155.143 21.9768V18.0962H152.09V15.589H155.143V12.4932H158.086V15.5671H161.705V18.0743H158.086V22.3039C158.086 22.9798 158.195 23.394 158.457 23.6993C158.74 24.0481 159.22 24.2443 159.939 24.2443C160.375 24.2443 160.942 24.1789 161.138 24.1352L161.574 26.6643Z" fill="white"/>
<path d="M96.2124 20.8214C97.1063 19.3172 97.5423 17.7474 97.5423 15.8506C97.5423 12.9728 96.3868 10.6183 95.5148 9.57178H98.9155C99.7448 10.7708 100.616 12.9292 100.616 15.9815C100.616 18.8157 99.3302 21.5627 98.8504 22.7182C99.7879 23.6993 101.816 24.07 102.862 24.07C103.56 24.07 104.148 23.9173 104.584 23.7429C104.693 24.2443 105.173 26.5553 105.173 26.5553C104.562 26.8605 103.647 27.1004 102.535 27.1004C101.074 27.1004 99.3302 26.6861 97.3679 25.3562C96.4086 26.5772 94.9916 27.3838 93.1384 27.3838C90.762 27.3838 89.0178 25.8577 89.0178 23.6339C89.0178 21.3883 90.7838 19.8186 93.1384 19.8186C94.4029 19.8404 95.5366 20.2546 96.2124 20.8214ZM94.9698 23.4377C94.4029 23.067 93.7488 22.7618 93.1602 22.7618C92.5279 22.7618 92.0483 23.0889 92.0483 23.6339C92.0483 24.1789 92.5279 24.5059 93.1602 24.5059C93.7052 24.5059 94.3593 24.2879 94.9698 23.4377Z" fill="white"/>
<path d="M11.9927 17.7912C9.72532 17.7694 8.06837 19.3828 8.04657 21.7809L8.00297 24.3099C4.99432 23.7866 3.22838 21.0397 3.22838 18.358C3.22838 15.1096 5.71378 12.4498 9.1149 12.4933C10.4884 12.5152 12.0799 13.191 13.1264 14.2593L15.2194 12.0137C13.6714 10.4658 11.5784 9.52832 9.22386 9.52832C3.77342 9.52832 0.110719 13.3 0.00171372 18.2926C-0.0854885 23.0236 3.16297 26.839 7.98117 27.2749V27.3403C7.95936 27.6892 7.85035 28.7357 6.36783 29.3679L8.63522 31.1121C9.89969 30.5235 11.0334 28.6267 11.0334 27.1878C13.497 26.5337 15.7208 24.2664 15.7644 21.5847C15.7644 19.2955 14.1729 17.813 11.9927 17.7912ZM11.0552 24.0701L11.077 21.8681C11.0988 20.9743 11.513 20.7127 11.9491 20.7127C12.3633 20.7127 12.7122 21.1051 12.7122 21.6283C12.7122 22.8056 11.9927 23.5904 11.0552 24.0701Z" fill="white"/>
<path d="M59.8022 27.3837L62.4621 19.2734L64.4678 13.1689C63.1162 12.9073 61.8516 12.0788 61.0667 10.9887C59.8895 9.33181 59.4098 7.23885 59.9984 5.12407C60.4999 3.31453 61.699 1.8102 63.3342 0.894524C64.4024 0.305879 65.6015 0.000653554 66.8006 0.000653554C68.1741 -0.0211485 69.7221 0.502089 71.2918 1.63579C72.9923 0.480296 74.9108 0.175067 76.9603 0.698307C78.9224 1.19975 80.6012 2.66047 81.4514 4.51362C82.3453 4.2738 83.6534 4.44821 84.2638 4.62263C86.0734 5.12407 87.5778 6.30137 88.5152 7.9583C89.4309 9.59342 89.6707 11.4902 89.1474 13.2997C88.6024 15.2619 87.1634 16.897 85.3103 17.7255C83.1738 18.6848 81.2334 18.3141 80.2087 17.7473C80.1869 18.0089 79.8817 19.6441 79.4893 21.6934C78.7262 25.7485 77.6143 31.4606 77.6143 31.4606L59.8022 27.3837ZM66.9314 3.0747C66.2338 3.0529 65.4707 3.27092 64.8603 3.59794C63.9228 4.12119 63.2687 4.97146 62.9854 5.97434C62.7019 6.97722 62.8327 8.04551 63.3342 8.96118C63.8574 9.89868 64.6858 10.5309 65.6888 10.8798C66.4954 11.1632 67.4329 11.2722 68.0433 11.2286C67.7599 12.1443 63.6393 24.9855 63.6393 24.9855L75.3687 27.6889C75.3687 27.6889 78.1811 14.6951 78.3774 13.8012C79.0968 14.3244 81.9747 16.0468 84.3511 14.8694C85.3103 14.3898 85.9426 13.4959 86.226 12.4931C86.5094 11.4684 86.3786 10.4001 85.8553 9.48442C85.3321 8.56876 84.4819 7.8929 83.4572 7.60947C83.1301 7.52227 82.7595 7.45686 82.4107 7.45686C82.1709 7.45686 81.9311 7.47866 81.6912 7.52227C81.8657 8.72137 81.5604 9.74605 80.9282 10.4219C80.3831 11.0106 79.5983 11.3157 78.7044 11.3157C77.3526 11.3157 76.1318 10.3129 76.0227 8.89578C75.9356 7.9147 76.3934 6.10515 78.639 5.42929C78.0503 4.66624 77.1783 3.96858 76.1536 3.66335C75.8048 3.57614 75.456 3.51074 75.1071 3.51074C74.235 3.51074 73.363 3.79416 72.6653 4.31741C73.7118 5.34209 74.0388 6.6938 73.6028 7.82749C73.2539 8.76496 72.4473 9.37542 71.4226 9.48442C71.3136 9.50619 71.2046 9.50619 71.0956 9.50619C70.0272 9.50619 69.0898 8.89578 68.632 7.9583C68.0869 6.781 68.3922 5.27668 69.4386 3.92497C68.7845 3.37992 67.6291 3.0965 66.9314 3.0747ZM71.1828 5.4729C70.6595 6.08334 70.5505 6.49758 70.5287 6.781C70.507 7.17344 70.7686 7.58767 71.2264 7.60947C71.6189 7.63127 71.9023 7.19524 71.8586 6.7156C71.8368 6.45398 71.6188 6.03975 71.1828 5.4729ZM79.7072 7.30425C78.9878 7.52227 78.5953 7.80569 78.421 8.02371C78.2029 8.30713 78.094 8.85217 78.4645 9.1356C78.8352 9.41903 79.3802 9.22281 79.5764 8.76496C79.7291 8.45974 79.7727 8.04551 79.7072 7.30425Z" fill="white"/>
</svg>
