<svg width="116" height="51" viewBox="0 0 116 51" fill="none" xmlns="http://www.w3.org/2000/svg">
<g clip-path="url(#clip0_1_10744)">
<path d="M0.00219727 6.25977H37.5593V43.8155H0.00219727V6.25977Z" fill="white"/>
<path d="M45.9077 20.8799H48.1305V24.0694H50.7667V20.8799H52.9964V29.2241H50.7667V25.6464H48.1305V29.2241H45.9077V20.8799Z" fill="white"/>
<path d="M56.3099 26.7732C56.3099 26.1763 56.5968 25.8766 57.0658 25.6271C57.6987 26.2097 58.3261 26.8085 58.9196 27.4645C58.5036 27.7793 58.1527 27.924 57.6518 27.924C56.9795 27.924 56.3099 27.4924 56.3099 26.7732ZM60.776 24.7033C60.7543 25.2396 60.6115 25.7902 60.2281 26.2103C59.7597 25.7563 59.2771 25.313 58.7877 24.8821C59.6768 24.3655 60.5836 23.8284 60.5836 22.7741C60.5836 21.2154 59.1493 20.7158 57.6858 20.7158C56.3766 20.7158 54.9049 21.2385 54.9049 22.7129C54.9049 23.445 55.242 24.0174 55.9143 24.5456C54.8837 25.0262 54.272 25.661 54.272 26.8201C54.272 28.544 55.8449 29.3597 57.435 29.3597C58.3438 29.3597 59.3166 29.2068 60.0337 28.5813C60.2179 28.7731 60.3668 28.9886 60.5367 29.2162H62.9207L61.4368 27.5637C62.2117 26.7949 62.6685 25.7664 62.7194 24.7026L60.776 24.7033ZM56.8258 22.8211C56.8258 22.4023 57.1943 22.0787 57.7136 22.0787C58.2282 22.0787 58.6456 22.3302 58.6456 22.8211C58.6456 23.3723 58.0338 23.7088 57.6287 23.9487C57.2929 23.6837 56.8258 23.3016 56.8258 22.8211Z" fill="white"/>
<path d="M66.1059 22.4409H66.6973C67.5416 22.4409 68.324 22.5836 68.324 23.3627C68.324 24.3055 67.4144 24.33 66.6973 24.33H66.1059V22.4409ZM63.8811 29.2168H66.1059V25.909H66.5743C67.3995 25.909 67.6877 26.2721 68.1432 27.7077L68.6224 29.2168H70.9431L70.1336 26.9389C69.7148 25.9233 69.6658 25.2871 68.9487 25.0961V25.0743C70.0214 24.8215 70.5496 24.0791 70.5496 22.9643C70.5496 21.5286 69.3443 20.8584 67.8556 20.8584H63.8804L63.8811 29.2168Z" fill="white"/>
<path d="M77.7591 25.6718H78.4387C79.2062 25.6718 80.0849 25.7568 80.0849 26.6683C80.0849 27.518 79.2313 27.635 78.4168 27.635H77.7591V25.6718ZM75.5308 29.2168H79.0505C80.5512 29.2168 82.3124 28.7988 82.3124 26.7955C82.3124 25.7805 81.7334 25.1797 80.6239 24.954V24.9282C81.5574 24.6188 82.0925 24.0295 82.0925 22.9772C82.0925 21.5389 80.9346 20.8584 79.376 20.8584H75.5315L75.5308 29.2168ZM77.7591 22.4409H78.4035C79.1468 22.4409 79.865 22.5116 79.865 23.2797C79.865 23.9853 79.1108 24.1621 78.3808 24.1621H77.7584L77.7591 22.4409Z" fill="white"/>
<path d="M83.582 20.8584H85.8111V27.5643H89.2576V29.2161H83.582V20.8584Z" fill="white"/>
<path d="M91.8343 25.0391C91.8343 23.5899 92.3718 22.3669 93.7231 22.3669C95.0782 22.3669 95.6196 23.5899 95.6196 25.0391C95.6196 26.417 95.0782 27.7078 93.7231 27.7078C92.3718 27.7078 91.8343 26.417 91.8343 25.0391ZM89.5364 25.0391C89.5364 27.6922 90.9948 29.3597 93.7231 29.3597C96.4552 29.3597 97.916 27.6922 97.916 25.0391C97.916 22.3554 96.4772 20.7158 93.7231 20.7158C90.9674 20.7158 89.5364 22.3554 89.5364 25.0391Z" fill="white"/>
<path d="M106.081 29.0223C105.446 29.178 104.736 29.3594 103.602 29.3594C101.376 29.3594 98.8005 28.2351 98.8005 25.0735C98.8005 22.1614 100.831 20.7148 103.587 20.7148C104.442 20.7148 105.269 20.9058 106.069 21.1458L105.889 22.9506C105.168 22.5549 104.476 22.366 103.712 22.366C102.125 22.366 101.095 23.5148 101.095 25.0735C101.095 26.7145 102.258 27.7069 103.887 27.7069C104.619 27.7069 105.363 27.5166 105.97 27.2732L106.081 29.0223Z" fill="white"/>
<path d="M107.118 20.8711H109.327V24.2869H109.351L111.915 20.8711H114.565L111.512 24.7594L114.803 29.2146H112L109.351 25.418H109.327V29.2146H107.118V20.8711Z" fill="white"/>
</g>
<defs>
<clipPath id="clip0_1_10744">
<rect width="115.014" height="50.0743" fill="white"/>
</clipPath>
</defs>
</svg>
