<svg width="56" height="57" viewBox="0 0 56 57" fill="none" xmlns="http://www.w3.org/2000/svg">
<rect width="56" height="57" rx="8" fill="#F6C8B4"/>
<g clip-path="url(#clip0_1_15202)">
<g clip-path="url(#clip1_1_15202)">
<mask id="mask0_1_15202" style="mask-type:luminance" maskUnits="userSpaceOnUse" x="12" y="12" width="32" height="33">
<path d="M44 12.3125H12V44.3125H44V12.3125Z" fill="white"/>
</mask>
<g mask="url(#mask0_1_15202)">
<path fill-rule="evenodd" clip-rule="evenodd" d="M23.2584 14.3125H22C19.7909 14.3125 18 16.1034 18 18.3125V40.3125C18 42.5216 19.7909 44.3125 22 44.3125H34C36.2091 44.3125 38 42.5216 38 40.3125V30.4365L35.53 29.3779V40.3125C35.53 41.1575 34.845 41.8425 34 41.8425H22C21.155 41.8425 20.47 41.1575 20.47 40.3125V18.3125C20.47 17.4675 21.155 16.7825 22 16.7825H23V16.0146C23 15.4218 23.0905 14.85 23.2584 14.3125Z" fill="#041527"/>
<path d="M37.7447 32.3125H18V34.7806H37.7447V32.3125Z" fill="#041527"/>
<path d="M27.8984 39.8125C28.7269 39.8125 29.3984 39.1409 29.3984 38.3125C29.3984 37.4841 28.7269 36.8125 27.8984 36.8125C27.07 36.8125 26.3984 37.4841 26.3984 38.3125C26.3984 39.1409 27.07 39.8125 27.8984 39.8125Z" fill="#041527"/>
<path d="M35.5315 25.8601L35.2987 25.7603H35.0454H28.702C27.3389 25.7603 26.2339 24.6553 26.2339 23.2922V16.0146C26.2339 14.6515 27.3389 13.5465 28.702 13.5465H36.7523C38.1154 13.5465 39.2204 14.6515 39.2204 16.0146V27.441L35.5315 25.8601Z" stroke="#041527" stroke-width="2.46809"/>
<path d="M30.5 21.5391C30.5 21.5391 31.2875 22.2141 32.75 22.2141C34.2125 22.2141 35 21.5391 35 21.5391" stroke="#041527" stroke-width="2" stroke-linecap="round"/>
</g>
</g>
</g>
<defs>
<clipPath id="clip0_1_15202">
<rect width="32" height="33" fill="white" transform="translate(12 12)"/>
</clipPath>
<clipPath id="clip1_1_15202">
<rect width="32" height="33" fill="white" transform="translate(12 12)"/>
</clipPath>
</defs>
</svg>
