<svg width="56" height="57" viewBox="0 0 56 57" fill="none" xmlns="http://www.w3.org/2000/svg">
<rect width="56" height="57" rx="8" fill="#F6C8B4"/>
<g clip-path="url(#clip0_1_15175)">
<path fill-rule="evenodd" clip-rule="evenodd" d="M36.3617 31.8005V40.4373C36.3617 41.1188 35.8092 41.6721 35.1276 41.6721C34.4461 41.6721 33.8936 41.1196 33.8936 40.438V31.7997C33.8936 31.1182 34.4461 30.5657 35.1276 30.5657C35.8092 30.5657 36.3617 31.1189 36.3617 31.8005Z" fill="#041527"/>
<path fill-rule="evenodd" clip-rule="evenodd" d="M39.4471 37.3529H30.8088C30.1272 37.3529 29.5747 36.8004 29.5747 36.1188C29.5747 35.4373 30.1272 34.8848 30.8088 34.8848H39.4471C40.1286 34.8848 40.6811 35.4373 40.6811 36.1188C40.6811 36.8004 40.1286 37.3529 39.4471 37.3529Z" fill="#041527"/>
<path fill-rule="evenodd" clip-rule="evenodd" d="M23.4043 33.0338H19.7021C19.0206 33.0338 18.4681 33.5863 18.4681 34.2678V37.9699C18.4681 38.6515 19.0206 39.204 19.7021 39.204H23.4043C24.0858 39.204 24.6383 38.6515 24.6383 37.9699V34.2678C24.6383 33.5863 24.0858 33.0338 23.4043 33.0338ZM19.7021 30.5657C17.6575 30.5657 16 32.2232 16 34.2678V37.9699C16 40.0146 17.6575 41.6721 19.7021 41.6721H23.4043C25.4489 41.6721 27.1064 40.0146 27.1064 37.9699V34.2678C27.1064 32.2232 25.4489 30.5657 23.4043 30.5657H19.7021Z" fill="#041527"/>
<path fill-rule="evenodd" clip-rule="evenodd" d="M36.9789 19.4593H33.2768C32.5953 19.4593 32.0428 20.0118 32.0428 20.6933V24.3955C32.0428 25.077 32.5953 25.6295 33.2768 25.6295H36.9789C37.6605 25.6295 38.213 25.077 38.213 24.3955V20.6933C38.213 20.0118 37.6605 19.4593 36.9789 19.4593ZM33.2768 16.9912C31.2322 16.9912 29.5747 18.6487 29.5747 20.6933V24.3955C29.5747 26.4401 31.2322 28.0976 33.2768 28.0976H36.9789C39.0236 28.0976 40.6811 26.4401 40.6811 24.3955V20.6933C40.6811 18.6487 39.0236 16.9912 36.9789 16.9912H33.2768Z" fill="#041527"/>
<path fill-rule="evenodd" clip-rule="evenodd" d="M23.4043 19.4593H19.7021C19.0206 19.4593 18.4681 20.0118 18.4681 20.6934V24.3955C18.4681 25.077 19.0206 25.6295 19.7021 25.6295H23.4043C24.0858 25.6295 24.6383 25.077 24.6383 24.3955V20.6933C24.6383 20.0118 24.0858 19.4593 23.4043 19.4593ZM19.7021 16.9912C17.6575 16.9912 16 18.6487 16 20.6934V24.3955C16 26.4401 17.6575 28.0976 19.7021 28.0976H23.4043C25.4489 28.0976 27.1064 26.4401 27.1064 24.3955V20.6933C27.1064 18.6487 25.4489 16.9912 23.4043 16.9912H19.7021Z" fill="#041527"/>
</g>
<defs>
<clipPath id="clip0_1_15175">
<rect width="32" height="33" fill="white" transform="translate(12 12)"/>
</clipPath>
</defs>
</svg>
