<svg width="56" height="57" viewBox="0 0 56 57" fill="none" xmlns="http://www.w3.org/2000/svg">
<rect width="56" height="57" rx="8" fill="#F6C8B4"/>
<g clip-path="url(#clip0_1_15191)">
<path fill-rule="evenodd" clip-rule="evenodd" d="M23.2705 15.4964C22.787 14.4602 21.5494 14.0198 20.5199 14.5174L16.9303 16.2525C14.5123 17.4213 13.3866 20.2426 14.3356 22.7548L14.3386 22.7583L14.3389 22.7645L14.338 22.7691C16.0771 26.9478 18.6462 30.8626 22.0454 34.2617C25.4443 37.6605 29.3589 40.2295 33.5373 41.9685L33.5423 41.9675L33.549 41.9678L33.5542 41.974L33.5592 41.9775C36.071 42.9254 38.8914 41.7997 40.0599 39.3822L41.7952 35.7922C42.2927 34.7627 41.8522 33.5252 40.8161 33.0417L35.72 30.6636C35.001 30.328 34.1529 30.4374 33.5426 30.9444L31.7801 32.4085C31.0747 32.9945 30.0612 33.0466 29.3334 32.4887C28.312 31.7056 27.33 30.8467 26.3952 29.9119C25.4624 28.9791 24.6051 27.9993 23.8233 26.9802C23.265 26.2524 23.317 25.2388 23.9031 24.5332L25.3679 22.7697C25.8749 22.1594 25.9842 21.3114 25.6487 20.5924L23.2705 15.4964Z" stroke="#041527" stroke-width="2.47" stroke-linecap="round"/>
</g>
<defs>
<clipPath id="clip0_1_15191">
<rect width="32" height="33" fill="white" transform="translate(12 12)"/>
</clipPath>
</defs>
</svg>
