<svg width="56" height="57" viewBox="0 0 56 57" fill="none" xmlns="http://www.w3.org/2000/svg">
<rect width="56" height="57" rx="8" fill="#F6C8B4"/>
<g clip-path="url(#clip0_1_15162)">
<path d="M33.9999 14.5475H21.9999C20.4728 14.5475 19.2349 15.7854 19.2349 17.3125V39.3125C19.2349 40.8396 20.4728 42.0775 21.9999 42.0775H33.9999C35.5269 42.0775 36.7649 40.8396 36.7649 39.3125V17.3125C36.7649 15.7854 35.5269 14.5475 33.9999 14.5475Z" stroke="#041527" stroke-width="2.47"/>
<path d="M37.7447 31.3125H18V33.7806H37.7447V31.3125Z" fill="#041527"/>
<path d="M27.9004 38.8125C28.7288 38.8125 29.4004 38.1409 29.4004 37.3125C29.4004 36.4841 28.7288 35.8125 27.9004 35.8125C27.072 35.8125 26.4004 36.4841 26.4004 37.3125C26.4004 38.1409 27.072 38.8125 27.9004 38.8125Z" fill="#041527"/>
</g>
<defs>
<clipPath id="clip0_1_15162">
<rect width="32" height="33" fill="white" transform="translate(12 12)"/>
</clipPath>
</defs>
</svg>
