<svg width="91" height="51" viewBox="0 0 91 51" fill="none" xmlns="http://www.w3.org/2000/svg">
<g clip-path="url(#clip0_1_10735)">
<path fill-rule="evenodd" clip-rule="evenodd" d="M19.201 9.46079L1.88307 10.7398C0.486154 10.8609 0 11.7737 0 12.8681V31.8531C0 32.7054 0.302543 33.4347 1.03282 34.4091L5.10358 39.7025C5.77229 40.5548 6.38051 40.7374 7.65745 40.6769L27.7681 39.4594C29.4687 39.3384 29.9558 38.5466 29.9558 37.2081V15.8497C29.9558 15.158 29.6825 14.9587 28.8782 14.3682C28.8319 14.3349 28.7856 14.3016 28.7395 14.2681L23.2123 10.3737C21.8748 9.40132 21.3282 9.27825 19.201 9.46079ZM8.1123 15.5002C6.47023 15.6107 6.09779 15.6358 5.16512 14.8774L2.79382 12.9911C2.55283 12.747 2.67384 12.4424 3.28102 12.3819L19.9292 11.1655C21.3271 11.0434 22.0553 11.5306 22.602 11.9563L25.4574 14.0251C25.5794 14.0866 25.883 14.4507 25.5178 14.4507L8.32513 15.4856L8.1123 15.5002ZM6.19794 37.0256V18.8938C6.19794 18.102 6.44102 17.7369 7.16921 17.6754L26.9158 16.5195C27.5856 16.4589 27.8882 16.8845 27.8882 17.6754V35.686C27.8882 36.4779 27.7661 37.1476 26.6727 37.2081L7.77638 38.3035C6.68305 38.364 6.19794 37.9999 6.19794 37.0256ZM24.8512 19.8662C24.9723 20.4139 24.8512 20.9616 24.3035 21.0242L23.3927 21.2047V34.5916C22.602 35.0173 21.8738 35.2604 21.2656 35.2604C20.2933 35.2604 20.0502 34.9557 19.322 34.0439L13.3661 24.6735V33.7393L15.2502 34.166C15.2502 34.166 15.2502 35.2614 13.7302 35.2614L9.53947 35.5045C9.41741 35.2604 9.53947 34.6521 9.9641 34.5312L11.0584 34.2276V22.2406L9.53947 22.1175C9.41741 21.5698 9.72099 20.779 10.5723 20.7175L15.0687 20.4149L21.2656 29.9064V21.5093L19.6861 21.3278C19.564 20.657 20.0502 20.1698 20.6573 20.1103L24.8512 19.8662Z" fill="white"/>
<path d="M43.2259 31.5595V23.3074H43.3689L49.3195 31.5595H51.1932V19.4327H49.1099V27.6765H48.967L43.0162 19.4327H41.1353V31.5585H43.227L43.2259 31.5595ZM57.0813 31.7452C59.8303 31.7452 61.5026 29.9466 61.5026 26.9629C61.5026 23.9876 59.822 22.1806 57.0813 22.1806C54.3501 22.1806 52.6611 23.9959 52.6611 26.9629C52.6611 29.9466 54.3251 31.7452 57.0813 31.7452ZM57.0813 29.9967C55.6281 29.9967 54.7966 28.8877 54.7966 26.9629C54.7966 25.0465 55.6281 23.9292 57.0813 23.9292C58.5273 23.9292 59.3588 25.0465 59.3588 26.9629C59.3588 28.8877 58.5356 29.9967 57.0813 29.9967ZM63.4065 20.114V22.4248H61.9533V24.0888H63.4065V29.1058C63.4065 30.8876 64.2474 31.6023 66.3569 31.6023C66.7596 31.6023 67.1466 31.5605 67.4492 31.501V29.8704C67.1967 29.8955 67.037 29.9122 66.7428 29.9122C65.8696 29.9122 65.4827 29.5095 65.4827 28.6019V24.0888H67.4492V22.4248H65.4827V20.113H63.4065V20.114ZM68.6979 31.5595H70.774V22.3653H68.6979V31.5595ZM69.7318 20.8453C70.4203 20.8453 70.9754 20.2893 70.9754 19.5923C70.9754 18.8944 70.4214 18.3311 69.7318 18.3311C69.0516 18.3311 68.4882 18.8944 68.4882 19.5923C68.4882 20.2893 69.0516 20.8442 69.7318 20.8442V20.8453ZM76.4691 31.7452C79.2171 31.7452 80.8891 29.9466 80.8891 26.9629C80.8891 23.9876 79.2085 22.1806 76.4691 22.1806C73.7368 22.1806 72.0478 23.9959 72.0478 26.9629C72.0478 29.9466 73.7118 31.7452 76.4691 31.7452ZM76.4691 29.9967C75.0148 29.9967 74.1823 28.8877 74.1823 26.9629C74.1823 25.0465 75.0148 23.9292 76.4691 23.9292C77.914 23.9292 78.7468 25.0465 78.7468 26.9629C78.7468 28.8877 77.9223 29.9967 76.4691 29.9967ZM82.1301 31.5595H84.2145V26.2066C84.2145 24.8534 84.9969 23.9959 86.2395 23.9959C87.5086 23.9959 88.0962 24.7022 88.0962 26.1053V31.5595H90.1814V25.6098C90.1814 23.4159 89.0633 22.1806 87.0133 22.1806C85.6425 22.1806 84.7184 22.8108 84.281 23.8363H84.1378V22.3653H82.1301V31.5595Z" fill="white"/>
</g>
<defs>
<clipPath id="clip0_1_10735">
<rect width="90.7627" height="50.076" fill="white"/>
</clipPath>
</defs>
</svg>
