<svg width="56" height="57" viewBox="0 0 56 57" fill="none" xmlns="http://www.w3.org/2000/svg">
<rect width="56" height="57" rx="8" fill="#3F4C5A"/>
<g clip-path="url(#clip0_1_15027)">
<path fill-rule="evenodd" clip-rule="evenodd" d="M19.6385 16.1978V38.4105C19.6385 39.0921 20.191 39.6446 20.8725 39.6446H38.1491V42.1127H20.8725C18.8279 42.1127 17.1704 40.4552 17.1704 38.4105V16.1978H19.6385Z" fill="white"/>
<path fill-rule="evenodd" clip-rule="evenodd" d="M33.213 24.8359C33.8945 24.8359 34.447 25.3884 34.447 26.07V35.9423C34.447 36.6239 33.8945 37.1764 33.213 37.1764C32.5315 37.1764 31.979 36.6239 31.979 35.9423V26.07C31.979 25.3884 32.5315 24.8359 33.213 24.8359Z" fill="white"/>
<path fill-rule="evenodd" clip-rule="evenodd" d="M28.2765 19.8999C28.9581 19.8999 29.5106 20.4524 29.5106 21.134V35.9425C29.5106 36.624 28.9581 37.1765 28.2765 37.1765C27.595 37.1765 27.0425 36.624 27.0425 35.9425V21.134C27.0425 20.4524 27.595 19.8999 28.2765 19.8999Z" fill="white"/>
<path fill-rule="evenodd" clip-rule="evenodd" d="M23.3404 29.772C24.022 29.772 24.5745 30.3245 24.5745 31.006V35.9422C24.5745 36.6237 24.022 37.1762 23.3404 37.1762C22.6589 37.1762 22.1064 36.6237 22.1064 35.9422V31.006C22.1064 30.3245 22.6589 29.772 23.3404 29.772Z" fill="white"/>
</g>
<defs>
<clipPath id="clip0_1_15027">
<rect width="32" height="33" fill="white" transform="translate(12 12)"/>
</clipPath>
</defs>
</svg>
