<svg width="56" height="57" viewBox="0 0 56 57" fill="none" xmlns="http://www.w3.org/2000/svg">
<rect width="56" height="57" rx="8" fill="#3F4C5A"/>
<g clip-path="url(#clip0_1_15070)">
<mask id="mask0_1_15070" style="mask-type:luminance" maskUnits="userSpaceOnUse" x="12" y="13" width="32" height="31">
<path d="M44 13.0977H12V43.0977H44V13.0977Z" fill="white"/>
</mask>
<g mask="url(#mask0_1_15070)">
<path fill-rule="evenodd" clip-rule="evenodd" d="M23.9294 20.1804C23.9294 17.9475 25.7394 16.1375 27.9722 16.1375C30.205 16.1375 32.0151 17.9475 32.0151 20.1804C32.0151 20.8624 32.568 21.4154 33.2501 21.4154C33.9322 21.4154 34.4851 20.8624 34.4851 20.1804C34.4851 16.5834 31.5692 13.6675 27.9722 13.6675C24.3753 13.6675 21.4593 16.5834 21.4593 20.1804C21.4593 22.1422 22.3272 23.9004 23.6967 25.0933L18.7581 33.8168C18.4184 33.8326 18.0774 33.9277 17.7626 34.1094C16.7108 34.7167 16.3504 36.0617 16.9577 37.1135C17.565 38.1653 18.9099 38.5257 19.9618 37.9184C20.9503 37.3477 21.3281 36.1254 20.8659 35.1073L26.3898 25.3499C26.7226 24.762 26.5212 24.0156 25.9377 23.675C24.7338 22.9721 23.9294 21.6695 23.9294 20.1804ZM29.9614 21.1193C30.096 20.8346 30.1713 20.5162 30.1713 20.1803C30.1713 18.9658 29.1868 17.9812 27.9722 17.9812C26.7577 17.9812 25.7731 18.9658 25.7731 20.1803C25.7731 21.3486 26.684 22.304 27.8344 22.3752L33.4274 32.0608C33.7683 32.6511 34.5231 32.8536 35.1137 32.5131C36.3266 31.8139 37.8641 31.7651 39.159 32.5127C41.0926 33.6291 41.7552 36.1017 40.6388 38.0354C39.9153 39.2884 38.6225 40.0092 37.2706 40.0553C36.5415 40.0802 35.7972 39.9084 35.1161 39.5152C34.5254 39.1741 33.7701 39.3765 33.4291 39.9672C33.088 40.5579 33.2904 41.3132 33.8811 41.6542C34.9739 42.2852 36.1773 42.5641 37.3549 42.5239C39.5229 42.4498 41.6106 41.2921 42.7779 39.2704C44.5763 36.1553 43.509 32.1721 40.394 30.3736C38.6909 29.3904 36.729 29.2646 35.0082 29.859L29.9614 21.1193ZM20.8835 39.5152C18.9499 40.6316 16.4773 39.969 15.3609 38.0354C14.2445 36.1017 14.907 33.6291 16.8407 32.5127C17.4314 32.1717 17.6337 31.4164 17.2927 30.8257C16.9517 30.235 16.1964 30.0326 15.6057 30.3736C12.4906 32.1721 11.4233 36.1553 13.2218 39.2704C15.0203 42.3854 19.0035 43.4527 22.1186 41.6542C23.7769 40.6968 24.8538 39.1202 25.2283 37.3878H35.4196C35.586 37.596 35.7932 37.7772 36.0379 37.9184C37.0897 38.5257 38.4347 38.1653 39.042 37.1135C39.6492 36.0617 39.2889 34.7167 38.237 34.1095C37.1852 33.5022 35.8403 33.8626 35.233 34.9144L35.231 34.9179H24.1389C23.4699 34.9179 22.9226 35.4505 22.9044 36.1192C22.8672 37.4811 22.1452 38.7867 20.8835 39.5152Z" fill="white"/>
</g>
</g>
<defs>
<clipPath id="clip0_1_15070">
<rect width="32" height="33" fill="white" transform="translate(12 12)"/>
</clipPath>
</defs>
</svg>
