<svg width="93" height="36" viewBox="0 0 93 36" fill="none" xmlns="http://www.w3.org/2000/svg">
<g clip-path="url(#clip0_1_14920)">
<path d="M91.223 34.008C91.1464 34.0217 91.0718 34.0454 90.9951 34.0454C88.9392 34.0454 86.8813 34.0454 84.8254 34.0454C84.7783 34.0454 84.7331 34.0395 84.6506 34.0335C84.6506 33.9393 84.6506 33.847 84.6506 33.7547C84.6506 32.9771 84.6507 32.2015 84.6467 31.4239C84.6467 31.363 84.6055 31.3041 84.5839 31.2432C84.5407 31.2884 84.4739 31.3257 84.4582 31.3787C84.0085 32.8809 82.9187 33.682 81.4676 34.0414C80.9021 34.1808 80.3071 34.2378 79.7239 34.2574C78.6891 34.2907 77.6523 34.2986 76.6272 34.1003C75.832 33.9471 75.0819 33.6918 74.4771 33.1185C73.835 32.5097 73.5483 31.7283 73.4285 30.8859C73.3422 30.2831 73.2911 29.6684 73.2911 29.0597C73.2813 21.2444 73.2793 13.4311 73.295 5.61589C73.295 4.90114 73.3873 4.17262 73.5326 3.47161C73.8606 1.90071 74.8659 0.946384 76.4054 0.534022C77.1908 0.323913 77.992 0.233587 78.801 0.231623C81.0533 0.223768 83.3075 0.221805 85.5598 0.231623C86.3845 0.23555 87.2014 0.333732 87.9967 0.573294C89.654 1.06812 90.6043 2.18543 90.8852 3.87219C90.9735 4.40237 91.0168 4.94826 91.0207 5.4863C91.0344 7.72287 91.0266 9.95944 91.0266 12.194C91.0266 12.2864 91.0266 12.3786 91.0266 12.4808H84.0635C84.0635 12.3884 84.0635 12.306 84.0635 12.2216C84.0635 10.3149 84.0674 8.40818 84.0596 6.5015C84.0596 6.23052 84.0262 5.95167 83.9654 5.68855C83.8377 5.14069 83.4705 4.82652 82.9089 4.77546C82.6045 4.74798 82.2962 4.73815 81.9919 4.75583C81.1672 4.80688 80.7626 5.20943 80.6782 6.03611C80.6606 6.20695 80.6528 6.37975 80.6528 6.55254C80.6528 13.6688 80.6507 20.785 80.6567 27.9011C80.6567 28.2035 80.6979 28.5118 80.7607 28.8083C80.8687 29.313 81.2006 29.637 81.7053 29.6959C82.1372 29.7449 82.5849 29.7509 83.0149 29.6959C83.5824 29.6213 83.9006 29.2423 84.0085 28.6257C84.042 28.4333 84.0635 28.237 84.0635 28.0406C84.0674 25.3563 84.0655 22.6739 84.0655 19.9896C84.0655 19.9367 84.0596 19.8817 84.0537 19.809H82.2943V15.2789C82.3768 15.2789 82.4612 15.2789 82.5437 15.2789C85.3458 15.2789 88.1479 15.2789 90.95 15.2789C91.0423 15.2789 91.1326 15.3024 91.2249 15.3163V34.008H91.223Z" fill="#041527"/>
<path d="M49.2743 17.3639C50.0008 17.5327 50.6292 17.7684 51.181 18.1748C52.0489 18.8111 52.532 19.6947 52.7264 20.7276C52.8363 21.3167 52.9011 21.9234 52.907 22.5243C52.9286 24.643 52.9345 26.7618 52.905 28.8785C52.8952 29.5698 52.8226 30.2766 52.6616 30.9483C52.2885 32.4936 51.2301 33.4028 49.7161 33.7562C49.0033 33.9231 48.2611 34.0291 47.5306 34.035C43.4247 34.0606 39.3206 34.0469 35.2147 34.0469H35.0066V0.225281C35.1028 0.225281 35.1951 0.225281 35.2874 0.225281C39.2755 0.225281 43.2617 0.221354 47.2498 0.227245C48.1236 0.227245 48.9857 0.335245 49.8202 0.612116C51.346 1.11677 52.2237 2.18105 52.4907 3.74411C52.585 4.28999 52.6301 4.84963 52.6321 5.40533C52.6438 7.82256 52.6419 10.2379 52.6262 12.655C52.6203 13.4346 52.4927 14.2005 52.2002 14.929C51.7013 16.1679 50.7686 16.9161 49.508 17.2872C49.4491 17.305 49.3921 17.3246 49.2723 17.3619L49.2743 17.3639ZM42.5077 4.76912V15.2608C43.1046 15.2608 43.6878 15.2922 44.2651 15.253C44.9033 15.2097 45.2744 14.8425 45.3863 14.2063C45.4334 13.9373 45.455 13.6604 45.455 13.3875C45.4609 11.1352 45.4589 8.88488 45.455 6.63261C45.455 6.43624 45.4472 6.23988 45.4276 6.04548C45.3549 5.28555 44.972 4.82018 44.3122 4.77501C43.7192 4.73574 43.1223 4.76716 42.5057 4.76716L42.5077 4.76912ZM42.5057 19.7988V29.5148C42.5803 29.5187 42.6412 29.5266 42.7021 29.5246C43.2106 29.5167 43.7231 29.5383 44.2298 29.4913C44.8856 29.4304 45.2253 29.0907 45.3412 28.4407C45.3863 28.1874 45.408 27.9262 45.408 27.669C45.4138 25.67 45.4099 23.669 45.408 21.6701C45.408 21.4816 45.4001 21.293 45.3824 21.1065C45.3038 20.2642 44.8837 19.8439 44.0393 19.8007C43.5385 19.7752 43.0359 19.7968 42.5057 19.7968V19.7988Z" fill="#041527"/>
<path d="M0.919947 0.226852C1.00046 0.226852 1.0849 0.226852 1.16736 0.226852C5.27332 0.226852 9.3773 0.220961 13.4833 0.228816C14.3001 0.228816 15.1091 0.334852 15.8946 0.578341C17.4733 1.06729 18.3904 2.14139 18.6692 3.7555C18.7576 4.26997 18.8007 4.79818 18.8047 5.32051C18.8184 7.78486 18.8145 10.2472 18.8086 12.7116C18.8086 13.4598 18.7163 14.1981 18.4787 14.9109C18.0311 16.2618 17.1121 17.1298 15.7473 17.5284C15.653 17.5559 15.5608 17.5873 15.4803 17.6109C15.8926 17.7876 16.3188 17.929 16.7055 18.141C17.8622 18.7734 18.465 19.8101 18.7104 21.0649C18.8224 21.6304 18.8911 22.2156 18.895 22.7909C18.9107 26.455 18.9029 30.1192 18.9029 33.7833C18.9029 33.8599 18.9029 33.9365 18.9029 34.0288H11.5019C11.498 33.9483 11.4921 33.8717 11.4921 33.7951C11.4921 29.7618 11.4921 25.7305 11.4882 21.6972C11.4882 21.4243 11.4686 21.1474 11.4214 20.8783C11.3076 20.2304 10.96 19.8769 10.308 19.8298C9.68559 19.7866 9.05722 19.8199 8.40137 19.8199V34.0288H0.916016V0.226852H0.919947ZM8.41709 4.75302V15.2781C8.94137 15.2781 9.44994 15.2781 9.95853 15.2781C10.0764 15.2781 10.1942 15.2781 10.3119 15.2623C10.9384 15.1838 11.3055 14.848 11.4194 14.2236C11.4666 13.9703 11.4901 13.7111 11.4901 13.4539C11.496 11.1799 11.4941 8.90414 11.4921 6.63025C11.4921 6.44174 11.4843 6.25324 11.4666 6.06668C11.39 5.23215 10.9855 4.8021 10.1804 4.76087C9.60114 4.73142 9.01992 4.75498 8.41709 4.75498V4.75302Z" fill="#041527"/>
<path d="M72.8402 34.0368H65.072C64.8463 32.0594 64.6223 30.08 64.3946 28.0888H61.4295C61.2194 30.0643 61.0092 32.0456 60.7972 34.0347H53.3C53.3708 33.3829 53.4395 32.7466 53.5083 32.1084C53.6575 30.7378 53.8067 29.3653 53.9578 27.9946C54.1071 26.6318 54.2583 25.2671 54.4095 23.9044C54.5725 22.4159 54.7355 20.9276 54.8985 19.4391C55.0811 17.7641 55.2656 16.0891 55.4483 14.4142C55.629 12.7628 55.8056 11.1094 55.9843 9.45796C56.163 7.82226 56.3437 6.1846 56.5223 4.54888C56.6717 3.18613 56.8248 1.82141 56.9662 0.458648C56.9858 0.27603 57.0427 0.224976 57.2234 0.224976C61.1251 0.228904 65.0249 0.228904 68.9266 0.224976C69.0994 0.224976 69.1525 0.279958 69.1721 0.446866C69.4156 2.71486 69.6669 4.98089 69.9143 7.24888C70.1245 9.18109 70.3307 11.1153 70.5427 13.0475C70.7391 14.8402 70.9394 16.6312 71.1357 18.4239C71.3007 19.9281 71.4597 21.4321 71.6246 22.9363C71.8053 24.5877 71.9899 26.2391 72.1706 27.8925C72.3355 29.3966 72.4965 30.9008 72.6595 32.405C72.7184 32.941 72.7773 33.4771 72.8402 34.0407V34.0368ZM64.3022 23.5489C63.8919 17.715 63.4854 11.9027 63.077 6.09623C62.8335 6.00983 62.7785 6.10408 62.7648 6.32008C62.643 8.21302 62.5114 10.104 62.3799 11.995C62.2444 13.9173 62.105 15.8398 61.9695 17.7641C61.8634 19.2722 61.7574 20.7822 61.6533 22.2902C61.6239 22.7066 61.6003 23.1248 61.5748 23.5509H64.3042L64.3022 23.5489Z" fill="#041527"/>
<path d="M27.5375 29.0689H33.8565V34.029H20.0464V0.244751H33.7878V5.18328H27.5297V15.0014H33.5934V19.9655H27.5375V29.0689Z" fill="#041527"/>
</g>
<defs>
<clipPath id="clip0_1_14920">
<rect width="92.1398" height="35.0532" fill="white"/>
</clipPath>
</defs>
</svg>
