<svg width="155" height="25" viewBox="0 0 155 25" fill="none" xmlns="http://www.w3.org/2000/svg">
<g clip-path="url(#clip0_1_14861)">
<path fill-rule="evenodd" clip-rule="evenodd" d="M39.1019 17.7625C48.0742 18.3507 52.4906 10.4051 43.4883 7.94273C39.8097 6.9458 36.151 7.72342 32.2131 10.2057C35.2836 9.44811 39.0121 8.86989 41.6241 9.76712C45.7115 11.1728 47.5159 14.8813 39.1019 17.7426" fill="#041527"/>
<path d="M12.2614 4.64209H8.802V22.6666H4.42548V4.64209H0.986084V0.524775H12.2614V4.64209ZM15.7606 9.62673H15.7007V7.84225H11.5535V22.6666H15.7007V15.2394C15.7007 13.0362 15.7007 11.2517 18.4921 11.2517C18.7061 11.2554 18.9193 11.2754 19.1302 11.3116V7.32383C18.4187 7.38835 17.7356 7.63381 17.1458 8.0369C16.556 8.43999 16.0791 8.9873 15.7606 9.62673ZM27.0259 16.8844C27.0259 17.6222 27.1156 19.0876 26.029 19.0876C24.6532 19.0876 24.9722 16.7946 24.9722 15.9772V7.84225H20.805V16.7348C20.805 19.4365 21.1838 22.9657 25.8893 22.9657C29.558 22.9657 31.1731 20.7325 31.1731 17.2931V7.84225H27.0557L27.0259 16.8844ZM49.1876 11.3913C49.1876 17.2034 52.6768 22.9058 58.9974 22.9058C59.681 22.908 60.3584 22.7758 60.9912 22.517V18.3798C60.4533 18.5753 59.8882 18.6862 59.3163 18.7087C55.4981 18.7087 53.8232 14.6513 53.8232 11.3614C53.8232 8.07152 55.4981 4.46265 59.3463 4.46265C59.9019 4.47035 60.4546 4.54736 60.9912 4.69193V0.704215C60.2933 0.438556 59.5545 0.296872 58.8079 0.285522C52.8263 0.285522 49.1876 5.89824 49.1876 11.3913ZM73.0041 15.2394C73.0041 19.0278 71.7979 22.9357 67.3616 22.9357C62.9252 22.9357 61.7189 19.0278 61.7189 15.2394C61.7189 11.4511 62.9252 7.51325 67.3616 7.51325C71.7979 7.51325 73.0041 11.481 73.0041 15.2394ZM68.8569 15.2394C68.8569 14.3921 68.7971 11.2517 67.3616 11.2517C65.926 11.2517 65.8662 14.402 65.8662 15.2394C65.8662 16.0768 65.926 19.2272 67.3616 19.2272C68.7971 19.2272 68.8569 16.1168 68.8569 15.2394ZM88.0877 7.51325C87.3224 7.57514 86.5884 7.84329 85.9635 8.28918C85.3385 8.73506 84.8461 9.34198 84.5386 10.0455H84.4788C84.4538 9.3784 84.1763 8.74581 83.7024 8.27568C83.2286 7.80553 82.5939 7.53301 81.9267 7.51325C81.1255 7.55892 80.3547 7.83547 79.7072 8.30957C79.0598 8.78366 78.5633 9.43501 78.2779 10.185V7.81231H74.1307V22.6367H78.2779V13.445C78.2779 12.6873 78.4175 11.7502 79.4543 11.7502C80.4911 11.7502 80.4512 13.6244 80.4512 14.3621V22.6666H84.5885V13.3552C84.5885 12.6873 84.738 11.6804 85.705 11.6804C86.9413 11.6804 86.702 13.8637 86.702 14.6712V22.7164H90.8392V12.4181C90.7594 10.514 90.7594 7.54318 88.0877 7.54318V7.51325ZM106.112 7.51325C105.347 7.57514 104.613 7.84329 103.988 8.28918C103.363 8.73506 102.871 9.34198 102.563 10.0455H102.503C102.478 9.3784 102.2 8.74581 101.727 8.27568C101.253 7.80553 100.618 7.53301 99.9511 7.51325C99.151 7.55833 98.3812 7.83478 97.7352 8.30908C97.0892 8.78338 96.5949 9.43509 96.3124 10.185H96.2525V7.81231H92.1153V22.6367H96.2525V13.445C96.2525 12.6873 96.4021 11.7502 97.4289 11.7502C98.4557 11.7502 98.4259 13.6244 98.4259 14.3621V22.6666H102.563V13.3552C102.563 12.6873 102.712 11.6804 103.68 11.6804C104.916 11.6804 104.676 13.8637 104.676 14.6712V22.7164H108.824V12.4181C108.793 10.514 108.794 7.54318 106.112 7.54318V7.51325ZM120.478 14.6213L120.388 16.3261H113.838C113.838 17.4127 113.838 19.7655 115.394 19.7655C116.45 19.7655 116.72 18.9381 116.72 18.0607H120.239C119.889 20.7924 118.563 22.9357 115.543 22.9357C111.346 22.9357 109.841 19.1973 109.841 15.5285C109.841 11.8598 111.137 7.55311 115.454 7.55311C118.185 7.54313 120.708 9.9856 120.478 14.6513V14.6213ZM116.889 13.4151C116.889 12.4181 116.689 10.6834 115.394 10.6834C114.098 10.6834 113.868 12.3882 113.868 13.3253V13.774H116.859L116.889 13.4151ZM125.731 9.59686H125.672V7.81231H121.535V22.6367H125.672V15.2394C125.672 13.0362 125.672 11.2517 128.463 11.2517C128.681 11.2559 128.897 11.2758 129.111 11.3116V7.32383C128.398 7.38764 127.713 7.63273 127.122 8.03581C126.53 8.43888 126.052 8.98654 125.731 9.62673V9.59686ZM129.779 15.3292C129.779 18.6988 131.194 22.9357 135.213 22.9357C136.036 22.9364 136.849 22.7561 137.595 22.4073V18.6191C137.227 18.8897 136.786 19.0426 136.329 19.0577C134.245 19.0577 133.917 16.675 133.917 15.07C133.917 13.465 134.365 11.0822 136.388 11.0822C136.612 11.0698 136.835 11.1052 137.042 11.186C137.251 11.2668 137.439 11.3912 137.595 11.5508V7.90207C136.945 7.61317 136.242 7.46373 135.531 7.46341C131.245 7.54317 129.779 11.6306 129.779 15.359V15.3292ZM148.93 14.6213L148.84 16.3261H142.29C142.29 17.4127 142.29 19.7655 143.846 19.7655C144.902 19.7655 145.172 18.9381 145.172 18.0607H148.691C148.342 20.7924 147.016 22.9357 143.996 22.9357C139.789 22.9357 138.293 19.1973 138.293 15.5285C138.293 11.8598 139.589 7.55311 143.906 7.55311C146.637 7.54313 149.16 9.9856 148.93 14.6513V14.6213ZM145.341 13.4151C145.341 12.4181 145.142 10.6834 143.846 10.6834C142.55 10.6834 142.32 12.3882 142.32 13.3253V13.774H145.311L145.341 13.4151ZM39.3479 20.3936C38.6726 20.0943 38.0685 19.6552 37.5754 19.1053C37.0822 18.5555 36.7114 17.9072 36.4871 17.2035C36.2629 16.4998 36.1905 15.7564 36.2746 15.0226C36.3587 14.2888 36.5975 13.5812 36.9752 12.9465C37.7069 11.8458 38.7472 10.9857 39.966 10.4741C37.7936 10.6506 35.7678 11.6404 34.2935 13.2456C33.6362 14.0231 33.1882 14.9556 32.9921 15.9546C32.7959 16.9536 32.858 17.9863 33.1725 18.9546C33.4869 19.923 34.0433 20.795 34.7891 21.4882C35.5348 22.1814 36.4451 22.6727 37.4338 22.9158C40.8931 23.9127 46.5158 22.7862 48.2305 18.8583C46.0273 20.6029 42.0496 21.4902 39.3479 20.4235V20.3936ZM149.009 8.5002H149.768V10.4941H150.067V8.5002H150.824V8.26094H149.009V8.5002ZM152.808 8.23101L152.17 10.1252L151.522 8.26094H151.084V10.5041H151.373V8.92887C151.373 8.81921 151.373 8.73945 151.373 8.67964V8.61983L152.021 10.5041H152.32L152.957 8.61983V8.95881C152.954 9.03186 152.954 9.10504 152.957 9.1781V10.5041H153.247V8.26094L152.808 8.23101Z" fill="#041527"/>
</g>
<defs>
<clipPath id="clip0_1_14861">
<rect width="154.234" height="24.0365" fill="white"/>
</clipPath>
</defs>
</svg>
