<svg width="83" height="34" viewBox="0 0 83 34" fill="none" xmlns="http://www.w3.org/2000/svg">
<g clip-path="url(#clip0_1_13531)">
<path d="M31.0911 1.28659C33.2186 1.30628 34.3741 1.69368 34.3413 4.00816C34.2658 12.7539 29.4169 30.8856 22.1386 30.8234C16.6494 30.7741 15.6023 24.6317 15.3855 16.8182C12.5852 22.79 11.1013 25.8891 9.25628 28.9914C8.38302 30.4556 7.35217 30.751 6.22283 30.7379C5.23795 30.7379 2.67397 30.3769 2.07974 30.0026C1.48553 29.6283 1.16381 29.2901 0.884755 27.8752C-0.428426 21.3291 0.53676 12.8885 1.9353 6.16178C2.18152 4.98976 2.49012 4.42181 3.30757 3.89654C4.18083 3.33515 6.10464 3.31217 7.35545 3.30232C8.01204 3.30232 8.40271 3.77835 8.232 4.58596C6.97134 10.4559 5.48088 18.5024 6.51501 26.8214C6.51501 26.8214 10.7828 18.5681 15.2017 8.28912C16.0914 6.22743 16.2916 5.54786 17.1223 5.37058C18.0933 5.15849 19.0956 5.13064 20.0768 5.2885C20.7958 5.38043 21.157 5.57413 21.1208 6.57214C21.0224 9.25759 20.8156 12.3009 20.7925 15.459C20.7467 20.8071 21.2685 26.8181 23.327 26.8378C26.0946 26.8607 28.6388 14.0343 27.8739 2.97075C27.8247 2.20582 28.107 1.43432 28.9212 1.35881C29.3315 1.31942 30.1621 1.27674 31.0911 1.28659ZM41.7871 27.9638C44.0261 27.9835 46.1139 24.1228 46.8887 19.4774C45.464 18.4072 44.8599 16.4899 45.3917 13.4894C45.4115 13.3941 45.4541 13.2267 45.5099 13.0232C45.1864 12.899 44.8419 12.8387 44.4955 12.8459C41.1107 12.813 39.1771 18.4926 39.1311 23.788C39.1049 26.5489 40.1718 27.9507 41.7871 27.9638ZM80.6966 11.3554C81.5436 11.4046 81.9769 11.8839 81.8358 12.626C81.5962 13.8767 80.6604 14.2673 79.3407 14.2904C77.8372 14.3101 76.2547 14.3462 74.8332 14.3855C74.8332 14.3855 73.149 22.1399 73.1228 25.0157C73.1228 27.0118 74.0322 27.7045 75.1845 27.7143C76.6388 27.7143 77.9816 26.8214 79.2455 24.5561C79.5377 24.0342 80.5784 24.3723 81.1201 25.0059C81.3565 25.2816 81.0774 25.8365 80.6933 26.4635C78.7826 29.625 76.0972 31.3552 73.3329 31.3321C70.3225 31.3059 68.4808 29.8844 68.0441 26.3289C66.291 29.0308 63.5038 31.2534 60.3324 31.2139C56.4783 31.1812 54.8532 29.0373 54.8893 25.2127C54.909 22.6881 55.7954 18.3973 55.7954 18.3973C54.6829 19.4179 53.3147 20.1178 51.8362 20.4229C50.2965 27.3434 46.2945 31.0925 40.9663 31.0466C36.4523 31.0038 33.3728 28.6073 33.4155 22.9246C33.4779 15.9088 38.0116 9.69751 45.0175 9.76317C49.0128 9.796 51.892 11.9627 52.1053 16.9495C53.7468 16.6869 55.2799 15.5773 56.6129 13.9949C57.2399 10.2359 58.1263 5.94838 58.668 3.53213C58.7796 3.02984 58.9733 2.08434 59.8728 1.81514C61.1648 1.49146 62.5152 1.48022 63.8124 1.78231C64.6462 1.95303 64.8531 2.73765 64.8465 3.42379C64.8301 5.27866 63.9141 9.36594 62.3515 13.0363C61.232 17.1334 60.4506 21.224 60.4243 24.4675C60.4047 26.805 61.1729 27.583 62.4729 27.5962C64.5937 27.6159 67.069 24.6908 68.3035 20.702C68.507 18.7815 69.0192 15.702 69.2884 14.553L67.1347 14.6351C66.4519 14.6547 65.7887 14.3593 65.8215 13.752C65.86 13.0372 65.9632 12.3273 66.1301 11.6311C66.1707 11.3704 66.3082 11.1346 66.5152 10.9708C66.7221 10.8071 66.9833 10.7276 67.2463 10.7481C67.9522 10.7481 68.9732 10.7481 70.0237 10.794C70.3947 8.77172 70.7065 7.18278 71.0086 5.86959C71.0805 5.62526 71.2271 5.40961 71.4279 5.25297C71.6287 5.09632 71.8736 5.00657 72.1281 4.99633C73.1976 4.9229 74.2721 4.97691 75.3289 5.15719C75.4922 5.18097 75.6487 5.23847 75.7885 5.32603C75.9284 5.41359 76.0483 5.52931 76.141 5.66579C76.2336 5.80229 76.2969 5.95658 76.3267 6.11883C76.3564 6.28109 76.352 6.44777 76.3138 6.60825C76.0249 7.88861 75.4242 11.0238 75.4242 11.0238C78.2541 11.1715 80.7097 11.3226 80.7097 11.3226" fill="#041527"/>
</g>
<defs>
<clipPath id="clip0_1_13531">
<rect width="82.1246" height="33.0501" fill="white"/>
</clipPath>
</defs>
</svg>
