<svg width="105" height="45" viewBox="0 0 105 45" fill="none" xmlns="http://www.w3.org/2000/svg">
<g clip-path="url(#clip0_1_13433)">
<path d="M56.2905 10.1587C54.8697 10.1587 53.8699 11.2374 53.8699 12.8426V25.7884C53.8699 27.3934 54.8697 28.4723 56.2905 28.4723C57.7115 28.4723 58.7114 27.3934 58.7114 25.7884V12.8426C58.7114 11.2374 57.6852 10.1587 56.2905 10.1587Z" fill="#041527"/>
<path d="M63.1292 2.34375C61.7083 2.34375 60.7085 3.42258 60.7085 5.02764V25.7883C60.7085 27.3934 61.7083 28.4722 63.1292 28.4722C64.5501 28.4722 65.55 27.3934 65.55 25.7883V5.02764C65.55 3.42258 64.5239 2.34375 63.1292 2.34375Z" fill="#041527"/>
<path d="M95.9642 9.94811C94.4373 9.94811 92.5694 10.3954 91.5432 11.6321H91.4642V5.02764C91.4642 3.42258 90.4644 2.34375 89.0435 2.34375C87.6226 2.34375 86.6228 3.42258 86.6228 5.02764V25.7883C86.6228 27.3934 87.6226 28.4722 89.0435 28.4722C90.4644 28.4722 91.4642 27.3934 91.4642 25.7883V17.342C91.4642 15.4475 92.5694 14.0002 94.5696 14.0002C96.3322 14.0002 97.7267 15.079 97.7267 17.342V25.8146C97.7267 27.4197 98.7266 28.4985 100.148 28.4985C101.568 28.4985 102.569 27.4197 102.569 25.8146V16.4999C102.594 12.3952 99.7529 9.94811 95.9642 9.94811Z" fill="#041527"/>
<path d="M83.6503 21.6053C82.5451 20.737 80.9663 20.9475 80.098 22.0526C79.2824 23.0788 78.0983 23.684 76.7827 23.684C74.4672 23.684 72.5989 21.7894 72.5989 19.5002C72.5989 17.2111 74.4935 15.3166 76.7827 15.3166C77.993 15.3166 79.1508 15.8428 79.9665 16.7637C80.8874 17.8163 82.4662 17.9478 83.5449 17.0268C84.5975 16.1059 84.7291 14.5271 83.8081 13.4484C82.0452 11.4223 79.4929 10.2383 76.8089 10.2383C71.7043 10.2383 67.5469 14.3956 67.5469 19.5002C67.5469 24.605 71.7043 28.7623 76.8089 28.7623C79.677 28.7623 82.3609 27.4467 84.1239 25.1838C84.9397 24.0523 84.7554 22.4735 83.6503 21.6053Z" fill="#041527"/>
<path d="M51.0998 14.2642C51.1262 14.2379 51.1262 14.2379 51.1525 14.2115C51.1789 14.1852 51.2051 14.1589 51.2314 14.1326C51.2577 14.1063 51.284 14.0799 51.3104 14.0537C51.3367 14.0274 51.363 14.0011 51.3893 13.9748C51.4156 13.9483 51.442 13.9221 51.4682 13.8694C51.4945 13.8432 51.4945 13.8168 51.5209 13.7906C51.5471 13.7643 51.5736 13.7379 51.5736 13.6852C51.5998 13.659 51.5998 13.6327 51.6261 13.6063C51.6525 13.5801 51.6525 13.5537 51.6787 13.5011C51.705 13.4747 51.7051 13.4221 51.7313 13.3958C51.7313 13.3696 51.7576 13.3432 51.7576 13.2906C51.7576 13.2642 51.784 13.2116 51.784 13.1854C51.784 13.159 51.8103 13.1327 51.8103 13.0801C51.8103 13.0538 51.8367 13.0011 51.8367 12.9749C51.8367 12.9485 51.8367 12.8959 51.863 12.8696C51.863 12.8434 51.8629 12.7906 51.8892 12.7643C51.8892 12.7118 51.8892 12.6854 51.8892 12.6328C51.8892 12.6065 51.8892 12.5801 51.8892 12.5538V12.5275C51.8892 12.4749 51.8892 12.4486 51.8892 12.396C51.8892 12.3696 51.8892 12.3433 51.8892 12.2907C51.8892 12.2381 51.8892 12.2118 51.863 12.1592C51.863 12.1328 51.863 12.1064 51.8367 12.0539C51.8367 12.0276 51.8103 11.9749 51.8103 11.9487C51.8103 11.9224 51.784 11.8697 51.784 11.8433C51.784 11.8171 51.7576 11.7645 51.7576 11.7382C51.7576 11.7118 51.7313 11.6592 51.7313 11.6328C51.7051 11.6066 51.705 11.5802 51.6787 11.554C51.6525 11.5277 51.6525 11.4751 51.6261 11.4486C51.5998 11.4224 51.5998 11.3961 51.5736 11.3697C51.5471 11.3435 51.5209 11.2908 51.4945 11.2646C51.4682 11.2382 51.4682 11.2119 51.442 11.1855C51.4156 11.1592 51.3893 11.1066 51.363 11.0804C51.363 11.0804 51.363 11.0804 51.3367 11.054C51.3104 11.0277 51.3104 11.0277 51.284 11.0014C51.2577 10.975 51.2314 10.9488 51.2051 10.9224C51.1789 10.8961 51.1525 10.8699 51.1262 10.8435C51.0998 10.8172 51.0735 10.7909 51.0473 10.7645C51.0209 10.7383 50.9946 10.7119 50.942 10.6856C50.9158 10.6593 50.8894 10.6593 50.863 10.633C50.8367 10.6068 50.7841 10.5804 50.7578 10.5804C50.7315 10.5541 50.7052 10.5541 50.6789 10.5277C50.6526 10.5014 50.5999 10.5014 50.5736 10.4752C50.5473 10.4488 50.4947 10.4488 50.4684 10.4225C50.442 10.4225 50.4157 10.3962 50.3631 10.3962C50.3368 10.3962 50.2842 10.3699 50.2579 10.3699C50.2316 10.3699 50.2053 10.3436 50.1526 10.3436C50.1263 10.3436 50.0737 10.3172 50.0473 10.3172C50.0211 10.3172 49.9684 10.3172 49.9421 10.2909C49.9157 10.2909 49.8632 10.2909 49.8368 10.2646C49.7842 10.2646 49.758 10.2646 49.7052 10.2646C49.679 10.2646 49.6526 10.2646 49.6264 10.2646H39.3908C38.1541 10.2646 37.1804 11.2646 37.1804 12.4749C37.1804 13.6852 38.1803 14.6852 39.3908 14.6852H44.1796C39.1276 20.316 37.3909 25.2628 37.2858 25.5259V25.5522C37.2594 25.6049 37.2594 25.6313 37.2594 25.6838C37.2594 25.7102 37.2331 25.7364 37.2331 25.7628C37.2331 25.7891 37.2068 25.8418 37.2068 25.868C37.2068 25.8944 37.1804 25.9469 37.1804 25.9733C37.1804 25.9995 37.1804 26.026 37.1804 26.0523C37.1804 26.1049 37.1804 26.1575 37.1804 26.1838C37.1804 26.1838 37.1804 26.2364 37.1804 26.2628C37.1804 26.3154 37.1804 26.368 37.1804 26.3943C37.1804 26.4206 37.1804 26.4469 37.1804 26.4732C37.1804 26.5259 37.1804 26.5522 37.2068 26.6048C37.2068 26.6311 37.2331 26.6837 37.2331 26.7101C37.2331 26.7364 37.2594 26.789 37.2594 26.8153C37.2594 26.8416 37.2858 26.8942 37.2858 26.9205C37.2858 26.947 37.312 26.9732 37.312 26.9995C37.3384 27.0258 37.3384 27.0784 37.3647 27.1047C37.3647 27.131 37.3909 27.1574 37.3909 27.1837C37.4173 27.2101 37.4173 27.2626 37.4435 27.2889C37.47 27.3152 37.47 27.3416 37.4963 27.3678C37.5225 27.3942 37.5489 27.4206 37.5489 27.4468C37.5751 27.4732 37.6015 27.4994 37.6015 27.5257C37.6278 27.5521 37.654 27.5783 37.654 27.6047C37.6804 27.631 37.7067 27.6573 37.7331 27.6837C37.7594 27.7099 37.7856 27.7362 37.7856 27.7362C37.812 27.7625 37.8383 27.7888 37.8909 27.8152C37.9172 27.8415 37.9436 27.8415 37.9699 27.8678C37.9962 27.8942 38.0225 27.9204 38.0751 27.9468C38.1014 27.973 38.1277 27.973 38.1541 27.9993C38.1803 28.0257 38.2067 28.0257 38.2593 28.0519C38.2856 28.0784 38.3382 28.0784 38.3645 28.1046C38.3909 28.1309 38.4172 28.1309 38.4435 28.1309C38.4961 28.1573 38.5224 28.1573 38.575 28.1835C38.6014 28.1835 38.6014 28.2099 38.6277 28.2099H38.654C38.6803 28.2099 38.7066 28.2362 38.7592 28.2362C38.7856 28.2362 38.8382 28.2624 38.8645 28.2624C38.8908 28.2624 38.9172 28.2624 38.9434 28.2888C38.996 28.2888 39.0487 28.3151 39.075 28.3151C39.1013 28.3151 39.1013 28.3151 39.1276 28.3151C39.2065 28.3151 39.2592 28.3151 39.3381 28.3151C39.3381 28.3151 39.3381 28.3151 39.3644 28.3151H49.5737C50.8104 28.3151 51.784 27.3152 51.784 26.1049C51.784 24.8945 50.7841 23.8946 49.5737 23.8946H42.8639C44.3112 21.6317 46.8635 17.8953 51.0998 14.2642Z" fill="#041527"/>
<path d="M2.37577 11.1054C8.32243 7.47434 14.2691 3.81688 20.1894 0.185726C20.663 -0.103714 21.2682 -0.0510882 21.6892 0.317289C24.0573 2.44861 26.4519 4.57994 28.82 6.71127C29.241 7.07964 29.3726 7.68484 29.1357 8.18478C26.5308 13.8157 23.9258 19.4466 21.2945 25.0512C21.0051 25.6828 21.3735 26.4195 22.0313 26.5773C24.61 27.1825 27.1886 27.7614 29.7672 28.3665C30.6093 28.5508 30.8197 29.6296 30.1357 30.1295C24.2942 34.4185 18.4265 38.7075 12.5851 42.9964C11.9799 43.4438 11.1643 43.47 10.5327 43.0491C7.74355 41.2334 4.95441 39.4179 2.16527 37.6023C1.63901 37.2602 1.42851 36.5761 1.71795 35.9973C4.1124 30.919 6.53316 25.8406 8.92761 20.7885C9.16443 20.2623 9.05917 19.6571 8.66449 19.2361C6.50685 17.0785 4.34921 14.9208 2.19158 12.7895C1.69164 12.3159 1.79689 11.4738 2.37577 11.1054Z" fill="#041527"/>
</g>
<defs>
<clipPath id="clip0_1_13433">
<rect width="104.158" height="44.0668" fill="white"/>
</clipPath>
</defs>
</svg>
